<svg width="56" height="56" viewBox="0 0 56 56" fill="none" xmlns="http://www.w3.org/2000/svg">
<path d="M7 16.3333V11.6667C7 10.429 7.49167 9.242 8.36683 8.36683C9.242 7.49167 10.429 7 11.6667 7H16.3333" stroke="#6730DE" stroke-width="2" stroke-linecap="round" stroke-linejoin="round"/>
<path d="M39.666 7H44.3327C45.5704 7 46.7573 7.49167 47.6325 8.36683C48.5077 9.242 48.9993 10.429 48.9993 11.6667V16.3333" stroke="#6730DE" stroke-width="2" stroke-linecap="round" stroke-linejoin="round"/>
<path d="M48.9993 39.6641V44.3307C48.9993 45.5684 48.5077 46.7554 47.6325 47.6306C46.7573 48.5057 45.5704 48.9974 44.3327 48.9974H39.666" stroke="#6730DE" stroke-width="2" stroke-linecap="round" stroke-linejoin="round"/>
<path d="M16.3333 48.9974H11.6667C10.429 48.9974 9.242 48.5057 8.36683 47.6306C7.49167 46.7554 7 45.5684 7 44.3307V39.6641" stroke="#6730DE" stroke-width="2" stroke-linecap="round" stroke-linejoin="round"/>
<path d="M18.666 32.6641C18.666 32.6641 22.166 37.3307 27.9993 37.3307C33.8327 37.3307 37.3327 32.6641 37.3327 32.6641" stroke="#6730DE" stroke-width="2" stroke-linecap="round" stroke-linejoin="round"/>
<path d="M21 21H21.0233" stroke="#6730DE" stroke-width="2" stroke-linecap="round" stroke-linejoin="round"/>
<path d="M35 21H35.0233" stroke="#6730DE" stroke-width="2" stroke-linecap="round" stroke-linejoin="round"/>
</svg>
