<svg width="60" height="60" viewBox="0 0 60 60" fill="none" xmlns="http://www.w3.org/2000/svg">
<rect width="60" height="60" rx="20" fill="#6730DE" fill-opacity="0.06"/>
<path d="M16.416 24.3691C16.1727 23.2733 16.2101 22.1338 16.5246 21.0563C16.8391 19.9788 17.4206 18.9982 18.2151 18.2053C19.0097 17.4124 19.9915 16.833 21.0697 16.5208C22.1479 16.2085 23.2874 16.1735 24.3827 16.4191C24.9855 15.4763 25.816 14.7004 26.7976 14.1629C27.7792 13.6255 28.8803 13.3437 29.9993 13.3438C31.1184 13.3438 32.2195 13.6255 33.2011 14.1629C34.1827 14.7004 35.0132 15.4763 35.616 16.4191C36.713 16.1725 37.8545 16.2073 38.9343 16.5203C40.0142 16.8333 40.9974 17.4143 41.7924 18.2094C42.5874 19.0044 43.1685 19.9876 43.4815 21.0674C43.7945 22.1473 43.8293 23.2888 43.5827 24.3858C44.5255 24.9886 45.3014 25.8191 45.8389 26.8007C46.3763 27.7823 46.658 28.8834 46.658 30.0024C46.658 31.1215 46.3763 32.2226 45.8389 33.2042C45.3014 34.1858 44.5255 35.0163 43.5827 35.6191C43.8282 36.7144 43.7933 37.8539 43.481 38.9321C43.1688 40.0103 42.5893 40.9921 41.7965 41.7867C41.0036 42.5812 40.023 43.1627 38.9454 43.4772C37.8679 43.7917 36.7285 43.829 35.6327 43.5858C35.0306 44.5322 34.1995 45.3114 33.2162 45.8513C32.233 46.3912 31.1294 46.6742 30.0077 46.6742C28.886 46.6742 27.7824 46.3912 26.7991 45.8513C25.8159 45.3114 24.9847 44.5322 24.3827 43.5858C23.2874 43.8313 22.1479 43.7964 21.0697 43.4841C19.9915 43.1719 19.0097 42.5924 18.2151 41.7996C17.4206 41.0067 16.8391 40.026 16.5246 38.9485C16.2101 37.871 16.1727 36.7316 16.416 35.6358C15.4659 35.0345 14.6834 34.2027 14.1411 33.2178C13.5988 32.2329 13.3145 31.1268 13.3145 30.0024C13.3145 28.8781 13.5988 27.772 14.1411 26.7871C14.6834 25.8022 15.4659 24.9704 16.416 24.3691Z" stroke="#6730DE" stroke-width="2" stroke-linecap="round" stroke-linejoin="round"/>
<path d="M25 29.9974L28.3333 33.3307L35 26.6641" stroke="#6730DE" stroke-width="2" stroke-linecap="round" stroke-linejoin="round"/>
</svg>
