<svg width="42" height="42" viewBox="0 0 42 42" fill="none" xmlns="http://www.w3.org/2000/svg">
<circle cx="21" cy="21" r="20.5" transform="rotate(-180 21 21)" stroke="#E0E0E0"/>
<path d="M10.9697 20.4697C10.6768 20.7626 10.6768 21.2374 10.9697 21.5303L15.7426 26.3033C16.0355 26.5962 16.5104 26.5962 16.8033 26.3033C17.0962 26.0104 17.0962 25.5355 16.8033 25.2426L12.5607 21L16.8033 16.7574C17.0962 16.4645 17.0962 15.9896 16.8033 15.6967C16.5104 15.4038 16.0355 15.4038 15.7426 15.6967L10.9697 20.4697ZM31 21L31 20.25L11.5 20.25L11.5 21L11.5 21.75L31 21.75L31 21Z" fill="black"/>
</svg>
