<svg width="60" height="60" viewBox="0 0 60 60" fill="none" xmlns="http://www.w3.org/2000/svg">
<rect width="60" height="60" rx="20" fill="#6730DE" fill-opacity="0.06"/>
<path d="M39.8574 44.6641C39.8574 42.0119 38.8039 39.4684 36.9285 37.593C35.0531 35.7176 32.5096 34.6641 29.8574 34.6641C27.2053 34.6641 24.6617 35.7176 22.7864 37.593C20.911 39.4684 19.8574 42.0119 19.8574 44.6641" stroke="#6730DE" stroke-width="2" stroke-linecap="round" stroke-linejoin="round"/>
<path d="M30.0007 34.6693C33.6825 34.6693 36.6673 31.6845 36.6673 28.0026C36.6673 24.3207 33.6825 21.3359 30.0007 21.3359C26.3188 21.3359 23.334 24.3207 23.334 28.0026C23.334 31.6845 26.3188 34.6693 30.0007 34.6693Z" stroke="#6730DE" stroke-width="2" stroke-linecap="round" stroke-linejoin="round"/>
<path d="M41.6667 14.6641H18.3333C16.4924 14.6641 15 16.1564 15 17.9974V41.3307C15 43.1717 16.4924 44.6641 18.3333 44.6641H41.6667C43.5076 44.6641 45 43.1717 45 41.3307V17.9974C45 16.1564 43.5076 14.6641 41.6667 14.6641Z" stroke="#6730DE" stroke-width="2" stroke-linecap="round" stroke-linejoin="round"/>
</svg>
