<svg width="24" height="30" viewBox="0 0 24 30" fill="none" xmlns="http://www.w3.org/2000/svg">
<path d="M2.71094 4.89648C4.19816 5.07125 7.89005 4.33615 10.7588 -0.0019536C11.6612 3.46179 15.434 11.1154 23.3135 14.0654C22.6927 13.9558 15.0832 14.0156 10.3691 14.0693C10.4506 13.5177 10.6089 12.9742 10.8467 12.457C9.27402 13.1802 7.46332 13.1801 5.89062 12.457C6.61371 14.0297 6.6137 15.8404 5.89062 17.4131C7.46332 16.69 9.27402 16.6899 10.8467 17.4131C10.6004 16.8775 10.4399 16.3141 10.3613 15.7422L23.3535 15.7422C19.7964 17.0835 12.3152 21.8131 10.8457 30C9.88355 28.3381 6.90922 25.0149 2.71094 25.0146C2.63843 25.0043 0.874064 18.2479 -6.61434e-07 14.8682L2.71094 4.89648Z" fill="#6730DE"/>
</svg>
