<svg width="60" height="60" viewBox="0 0 60 60" fill="none" xmlns="http://www.w3.org/2000/svg">
<rect width="60" height="60" rx="20" fill="#6730DE" fill-opacity="0.06"/>
<path d="M33.166 14.1641V20.4974C33.166 21.3372 33.4996 22.1427 34.0935 22.7366C34.6874 23.3304 35.4928 23.6641 36.3327 23.6641H42.666" stroke="#6730DE" stroke-width="2" stroke-linecap="round" stroke-linejoin="round"/>
<path d="M34.75 39.5C34.75 38.2402 34.2496 37.032 33.3588 36.1412C32.468 35.2504 31.2598 34.75 30 34.75C28.7402 34.75 27.532 35.2504 26.6412 36.1412C25.7504 37.032 25.25 38.2402 25.25 39.5" stroke="#6730DE" stroke-width="2" stroke-linecap="round" stroke-linejoin="round"/>
<path d="M34.7507 14.1641H20.5007C19.6608 14.1641 18.8553 14.4977 18.2615 15.0916C17.6676 15.6854 17.334 16.4909 17.334 17.3307V42.6641C17.334 43.5039 17.6676 44.3094 18.2615 44.9032C18.8553 45.4971 19.6608 45.8307 20.5007 45.8307H39.5006C40.3405 45.8307 41.146 45.4971 41.7398 44.9032C42.3337 44.3094 42.6673 43.5039 42.6673 42.6641V22.0807L34.7507 14.1641Z" stroke="#6730DE" stroke-width="2" stroke-linecap="round" stroke-linejoin="round"/>
<path d="M30.0007 34.7474C31.7496 34.7474 33.1673 33.3296 33.1673 31.5807C33.1673 29.8318 31.7496 28.4141 30.0007 28.4141C28.2517 28.4141 26.834 29.8318 26.834 31.5807C26.834 33.3296 28.2517 34.7474 30.0007 34.7474Z" stroke="#6730DE" stroke-width="2" stroke-linecap="round" stroke-linejoin="round"/>
</svg>
