<svg width="200" height="150" viewBox="0 0 200 150" fill="none" xmlns="http://www.w3.org/2000/svg">
<path d="M134.53 74.6104C133.936 80.0418 136.434 93.5242 151.186 104.003C139.408 107.299 113.383 121.08 103.352 149.86C103.724 147.592 103.524 119.797 103.342 102.579C105.217 102.876 107.064 103.459 108.822 104.327C106.363 98.5826 106.363 91.9701 108.822 86.2256C103.474 88.8669 97.3185 88.8667 91.9707 86.2256C94.4296 91.97 94.4297 98.5828 91.9707 104.327C93.7908 103.428 95.705 102.835 97.6484 102.548V150.009C93.0879 137.017 77.0069 109.69 49.168 104.322C54.8191 100.808 66.1208 89.9451 66.1211 74.6104C66.1303 74.3523 89.1247 67.9012 100.623 64.707L134.53 74.6104ZM5.32811 67.6123C2.05739 79.6506 4.43632 104.813 40.1182 109.159C50.7238 110.544 74.7905 118.62 86.209 139.841C81.253 133.342 64.2045 118.428 39.8213 117.149C17.5194 115.551 -12.2749 111.077 5.32811 67.6123ZM194.672 67.6123C212.275 111.077 182.481 115.551 160.179 117.149C135.795 118.428 118.747 133.342 113.791 139.841C125.209 118.62 149.275 110.544 159.881 109.159C195.563 104.813 197.943 79.6506 194.672 67.6123ZM193.1 29.5879L148.842 43.583V73.1621L100.426 59.168L51.415 73.1621V48.6719L95.9707 30.8604L51.415 43.583L7.75194 29.9062L100.426 0.0078125L193.1 29.5879Z" fill="url(#paint0_linear_3001_1903)"/>
<defs>
<linearGradient id="paint0_linear_3001_1903" x1="100" y1="0.0078125" x2="100" y2="150.009" gradientUnits="userSpaceOnUse">
<stop stop-color="white"/>
<stop offset="1" stop-color="#999999" stop-opacity="0"/>
</linearGradient>
</defs>
</svg>
