<svg width="324" height="262" viewBox="0 0 324 262" fill="none" xmlns="http://www.w3.org/2000/svg">
<g clip-path="url(#clip0_3028_5843)">
<path d="M316.323 233.634H290.754V233.827H316.323V233.634Z" fill="#EBEBEB"/>
<path d="M224.702 235.734H217.993V235.927H224.702V235.734Z" fill="#EBEBEB"/>
<path d="M289.982 226.47H275.167V226.663H289.982V226.47Z" fill="#EBEBEB"/>
<path d="M42.8417 227.767H9.49902V227.96H42.8417V227.767Z" fill="#EBEBEB"/>
<path d="M54.607 227.767H49.7202V227.96H54.607V227.767Z" fill="#EBEBEB"/>
<path d="M142.816 231.025H70.4946V231.218H142.816V231.025Z" fill="#EBEBEB"/>
<path d="M153.045 186.782H3.9716C2.80249 186.782 1.68127 186.317 0.854585 185.49C0.0279023 184.664 -0.436523 183.543 -0.436523 182.373V-27.1705C-0.426344 -28.3329 0.0425704 -29.4443 0.868153 -30.2626C1.69373 -31.081 2.80915 -31.5401 3.9716 -31.54H153.045C153.624 -31.54 154.197 -31.426 154.732 -31.2045C155.267 -30.983 155.752 -30.6583 156.162 -30.2489C156.571 -29.8396 156.896 -29.3536 157.117 -28.8188C157.339 -28.284 157.453 -27.7108 157.453 -27.1319V182.373C157.453 182.952 157.339 183.526 157.117 184.06C156.896 184.595 156.571 185.081 156.162 185.49C155.752 185.9 155.267 186.224 154.732 186.446C154.197 186.668 153.624 186.782 153.045 186.782ZM3.9716 -31.3856C2.8543 -31.3836 1.78336 -30.9389 0.99331 -30.1488C0.203263 -29.3588 -0.241483 -28.2878 -0.243523 -27.1705V182.373C-0.241483 183.491 0.203263 184.562 0.99331 185.352C1.78336 186.142 2.8543 186.587 3.9716 186.589H153.045C154.162 186.587 155.233 186.142 156.023 185.352C156.813 184.562 157.258 183.491 157.26 182.373V-27.1705C157.258 -28.2878 156.813 -29.3588 156.023 -30.1488C155.233 -30.9389 154.162 -31.3836 153.045 -31.3856H3.9716Z" fill="#EBEBEB"/>
<path d="M320.028 186.782H170.955C169.786 186.782 168.665 186.317 167.838 185.49C167.011 184.664 166.547 183.543 166.547 182.373V-27.1705C166.557 -28.3329 167.026 -29.4443 167.852 -30.2626C168.677 -31.081 169.793 -31.5401 170.955 -31.54H320.028C321.197 -31.54 322.319 -31.0756 323.145 -30.2489C323.972 -29.4222 324.436 -28.301 324.436 -27.1319V182.373C324.436 183.543 323.972 184.664 323.145 185.49C322.319 186.317 321.197 186.782 320.028 186.782ZM170.955 -31.3856C169.838 -31.3836 168.767 -30.9389 167.977 -30.1488C167.187 -29.3588 166.742 -28.2878 166.74 -27.1705V182.373C166.742 183.491 167.187 184.562 167.977 185.352C168.767 186.142 169.838 186.587 170.955 186.589H320.028C321.146 186.587 322.216 186.142 323.006 185.352C323.797 184.562 324.241 183.491 324.243 182.373V-27.1705C324.241 -28.2878 323.797 -29.3588 323.006 -30.1488C322.216 -30.9389 321.146 -31.3836 320.028 -31.3856H170.955Z" fill="#EBEBEB"/>
<path d="M355 221.213H-31V221.406H355V221.213Z" fill="#EBEBEB"/>
<path d="M99.9387 21.9438H43.8452V93.0219H99.9387V21.9438Z" fill="#F0F0F0"/>
<path d="M94.3573 29.0156H49.4346V85.9429H94.3573V29.0156Z" fill="#FAFAFA"/>
<path d="M39.5144 93.0225H43.853L43.853 21.9444H39.5144L39.5144 93.0225Z" fill="#E0E0E0"/>
<path d="M78.4311 58.3593C80.842 60.7702 82.1964 64.0401 82.1964 67.4496C82.1964 70.8592 80.842 74.129 78.4311 76.5399C76.0202 78.9508 72.7503 80.3053 69.3408 80.3053C65.9312 80.3053 62.6614 78.9508 60.2505 76.5399C55.2247 71.5142 73.4053 53.3336 78.4311 58.3593Z" fill="#F5F5F5"/>
<path d="M65.0057 57.3636C64.0664 56.4243 63.3213 55.3092 62.8129 54.0819C62.3046 52.8547 62.043 51.5393 62.043 50.211C62.043 48.8826 62.3046 47.5673 62.8129 46.34C63.3213 45.1128 64.0664 43.9977 65.0057 43.0584C65.945 42.1191 67.0601 41.374 68.2873 40.8657C69.5145 40.3573 70.8299 40.0957 72.1582 40.0957C73.4866 40.0957 74.8019 40.3573 76.0292 40.8657C77.2564 41.374 78.3715 42.1191 79.3108 43.0584C83.2557 47.011 68.9583 61.3162 65.0057 57.3636Z" fill="#EBEBEB"/>
<path d="M270.451 121.872H263.788V221.676H270.451V121.872Z" fill="#F0F0F0"/>
<path d="M273.353 121.872H267.556V221.676H273.353V121.872Z" fill="#E6E6E6"/>
<path d="M203.279 121.872H196.617V221.676H203.279V121.872Z" fill="#F0F0F0"/>
<path d="M206.182 121.872H200.384V221.676H206.182V121.872Z" fill="#E6E6E6"/>
<path d="M295.71 121.872H289.048V221.676H295.71V121.872Z" fill="#F0F0F0"/>
<path d="M298.605 121.872H292.808V221.676H298.605V121.872Z" fill="#E6E6E6"/>
<path d="M228.539 121.872H221.876V221.676H228.539V121.872Z" fill="#F0F0F0"/>
<path d="M298.613 115.464H196.625V123.462H298.613V115.464Z" fill="#F0F0F0"/>
<path d="M225.644 115.464H196.625V123.462H225.644V115.464Z" fill="#E0E0E0"/>
<path d="M231.441 121.872H225.644V221.676H231.441V121.872Z" fill="#E6E6E6"/>
<path d="M63.6163 115.974H20.9556V221.676H63.6163V115.974Z" fill="#E6E6E6"/>
<path d="M143.418 115.974H54.3062V221.676H143.418V115.974Z" fill="#F5F5F5"/>
<path d="M113.055 122.644H127.607C129.128 122.644 130.634 122.944 132.039 123.526C133.444 124.107 134.72 124.96 135.796 126.036C136.871 127.111 137.724 128.388 138.306 129.793C138.888 131.198 139.187 132.703 139.187 134.224V216.427H101.491V134.209C101.495 131.143 102.715 128.204 104.882 126.036C107.05 123.868 109.989 122.648 113.055 122.644Z" fill="#EBEBEB"/>
<path d="M70.9811 122.644H85.5719C87.0926 122.644 88.5984 122.944 90.0033 123.526C91.4083 124.107 92.6849 124.96 93.7602 126.036C94.8355 127.111 95.6884 128.388 96.2704 129.793C96.8523 131.198 97.1519 132.703 97.1519 134.224V216.427H59.4165V134.209C59.4206 131.143 60.6403 128.204 62.8082 126.036C64.9761 123.868 67.9152 122.648 70.9811 122.644Z" fill="#EBEBEB"/>
<path d="M93.7088 168.825C93.6636 169.554 93.4062 170.254 92.9683 170.838C92.5304 171.423 91.9311 171.866 91.2442 172.115C90.5573 172.363 89.8128 172.405 89.1024 172.235C88.392 172.066 87.7467 171.692 87.246 171.16C86.7453 170.629 86.411 169.962 86.2843 169.243C86.1576 168.523 86.2441 167.783 86.533 167.112C86.8219 166.441 87.3008 165.87 87.9105 165.468C88.5202 165.065 89.2342 164.851 89.9646 164.849C90.4715 164.864 90.9706 164.979 91.4332 165.187C91.8958 165.395 92.3129 165.692 92.6606 166.061C93.0083 166.43 93.2799 166.864 93.4597 167.339C93.6396 167.813 93.7242 168.318 93.7088 168.825Z" fill="#E0E0E0"/>
<path d="M112.986 168.825C112.94 169.554 112.683 170.254 112.245 170.839C111.806 171.424 111.207 171.867 110.519 172.115C109.832 172.363 109.087 172.405 108.376 172.235C107.666 172.064 107.021 171.69 106.52 171.157C106.02 170.625 105.686 169.958 105.56 169.238C105.435 168.518 105.522 167.777 105.812 167.107C106.102 166.436 106.582 165.865 107.193 165.464C107.804 165.063 108.518 164.849 109.249 164.849C110.272 164.881 111.24 165.318 111.94 166.064C112.641 166.809 113.017 167.802 112.986 168.825Z" fill="#E0E0E0"/>
<path d="M162 255.652C244.668 255.652 311.683 251.739 311.683 246.913C311.683 242.086 244.668 238.174 162 238.174C79.3323 238.174 12.3169 242.086 12.3169 246.913C12.3169 251.739 79.3323 255.652 162 255.652Z" fill="#F5F5F5"/>
<path d="M194.825 225.837C194.756 214.79 191.475 208.012 188.727 204.275C187.169 202.01 185.125 200.122 182.744 198.748L183.091 198.022C183.215 198.084 195.497 204.198 195.636 225.814L194.825 225.837Z" fill="#6730DE"/>
<path d="M198.014 223.884L197.242 223.814C200.407 187.962 176.398 175.363 176.189 175.24L176.552 174.522C176.768 174.645 201.233 187.492 198.014 223.884Z" fill="#6730DE"/>
<path d="M200.724 225.219C199.867 204.8 202.028 182.103 202.052 181.872L202.824 181.949C202.824 182.18 200.647 204.823 201.503 225.181L200.724 225.219Z" fill="#6730DE"/>
<path d="M202.322 226.408C203.719 217.7 207.139 212.752 209.756 210.135C211.264 208.535 213.111 207.293 215.16 206.498L214.975 205.881C214.867 205.881 204.437 209.231 201.689 226.308L202.322 226.408Z" fill="#6730DE"/>
<g opacity="0.3">
<path d="M194.825 225.837C194.756 214.79 191.475 208.012 188.727 204.275C187.169 202.01 185.125 200.122 182.744 198.748L183.091 198.022C183.215 198.084 195.497 204.198 195.636 225.814L194.825 225.837Z" fill="white"/>
<path d="M198.014 223.884L197.242 223.814C200.407 187.962 176.398 175.363 176.189 175.24L176.552 174.522C176.768 174.645 201.233 187.492 198.014 223.884Z" fill="white"/>
<path d="M200.724 225.219C199.867 204.8 202.028 182.103 202.052 181.872L202.824 181.949C202.824 182.18 200.647 204.823 201.503 225.181L200.724 225.219Z" fill="white"/>
<path d="M202.322 226.408C203.719 217.7 207.139 212.752 209.756 210.135C211.264 208.535 213.111 207.293 215.16 206.498L214.975 205.881C214.867 205.881 204.437 209.231 201.689 226.308L202.322 226.408Z" fill="white"/>
</g>
<path d="M178.861 176.128C178.861 176.128 173.526 162.549 165.86 172.639C159.638 180.83 165.86 189.8 165.86 189.8C165.86 189.8 199.234 190.642 193.266 177.904C189.568 170.029 178.861 176.128 178.861 176.128Z" fill="#6730DE"/>
<g opacity="0.5">
<path d="M177.772 176.745C177.772 176.745 167.937 175.201 167.883 175.973C167.829 176.745 176.506 177.093 175.695 178.166C174.885 179.239 166.524 180.165 166.431 181.192C166.339 182.219 174.267 179.718 173.912 180.629C173.557 181.54 168.261 185.793 168.176 186.92C168.091 188.048 173.148 182.119 173.75 182.79C174.352 183.462 174.661 188.835 175.171 187.6C175.68 186.365 175.062 180.945 176.282 179.88C177.502 178.814 184.658 185.585 186.28 184.674C187.901 183.763 178.343 179.988 177.772 176.745Z" fill="white"/>
<path d="M182.914 177.286C182.914 177.286 191.097 177.394 191.344 179.602C191.591 181.81 189.792 179.471 182.914 177.286Z" fill="white"/>
</g>
<path d="M181.763 225.158L185.561 245.793C185.755 246.846 186.311 247.798 187.133 248.484C187.955 249.169 188.992 249.545 190.062 249.545H204.846C205.916 249.545 206.953 249.169 207.775 248.484C208.598 247.798 209.154 246.846 209.347 245.793L213.153 225.158C213.223 224.774 213.208 224.38 213.109 224.002C213.01 223.625 212.829 223.274 212.579 222.974C212.33 222.675 212.017 222.434 211.664 222.268C211.311 222.102 210.926 222.016 210.536 222.016H184.388C183.997 222.014 183.61 222.098 183.255 222.263C182.901 222.427 182.587 222.669 182.336 222.969C182.085 223.269 181.904 223.621 181.805 223.999C181.706 224.378 181.692 224.773 181.763 225.158Z" fill="#6730DE"/>
<path d="M179.455 199.936C179.455 199.936 170.284 192.162 168.647 202.476C167.327 210.844 175.317 214.936 175.317 214.936C175.317 214.936 199.875 202.584 190.572 195.636C184.859 191.359 179.455 199.936 179.455 199.936Z" fill="#6730DE"/>
<path opacity="0.2" d="M179.455 199.936C179.455 199.936 170.284 192.162 168.647 202.476C167.327 210.844 175.317 214.936 175.317 214.936C175.317 214.936 199.875 202.584 190.572 195.636C184.859 191.359 179.455 199.936 179.455 199.936Z" fill="black"/>
<g opacity="0.5">
<path d="M178.915 200.832C178.915 200.832 171.195 203.557 171.442 204.136C171.689 204.715 178.135 201.589 177.965 202.685C177.795 203.781 172.09 207.711 172.43 208.49C172.77 209.27 177.541 204.368 177.641 205.163C177.741 205.958 175.549 211.115 175.927 211.972C176.305 212.829 177.664 206.568 178.359 206.8C179.054 207.031 181.385 210.829 181.269 209.733C181.154 208.637 178.591 204.947 179.069 203.704C179.548 202.461 187.376 204.584 188.194 203.287C189.013 201.99 180.582 202.94 178.915 200.832Z" fill="white"/>
<path d="M182.844 199.218C182.844 199.218 188.827 196.13 189.862 197.605C190.896 199.079 188.711 198.122 182.844 199.218Z" fill="white"/>
</g>
<path d="M211.007 178.907C211.007 178.907 221.653 169.875 223.552 181.864C225.096 191.591 215.793 196.339 215.793 196.339C215.793 196.339 187.229 181.941 198.037 173.889C204.723 168.941 211.007 178.907 211.007 178.907Z" fill="#6730DE"/>
<path opacity="0.3" d="M211.007 178.907C211.007 178.907 221.653 169.875 223.552 181.864C225.096 191.591 215.793 196.339 215.793 196.339C215.793 196.339 187.229 181.941 198.037 173.889C204.723 168.941 211.007 178.907 211.007 178.907Z" fill="black"/>
<g opacity="0.5">
<path d="M211.632 179.988C211.632 179.988 220.618 183.161 220.317 183.848C220.016 184.535 212.536 180.883 212.729 182.157C212.922 183.431 219.561 187.993 219.167 188.904C218.773 189.815 213.23 184.11 213.115 185.044C212.999 185.979 215.539 191.992 215.099 192.957C214.659 193.922 213.084 186.65 212.273 186.944C211.462 187.237 208.76 191.63 208.892 190.356C209.023 189.082 211.98 184.79 211.447 183.346C210.914 181.902 201.797 184.373 200.84 182.86C199.882 181.347 209.687 182.396 211.632 179.988Z" fill="white"/>
<path d="M207.047 178.073C207.047 178.073 200.099 174.46 198.887 176.205C197.675 177.95 200.245 176.799 207.047 178.073Z" fill="white"/>
</g>
<path d="M217.252 206.236C217.252 206.236 224.432 198.871 226.655 207.525C228.454 214.55 221.969 218.68 221.969 218.68C221.969 218.68 200.06 210.096 207.425 203.426C211.956 199.334 217.252 206.236 217.252 206.236Z" fill="#6730DE"/>
<path opacity="0.4" d="M217.252 206.236C217.252 206.236 224.432 198.871 226.655 207.525C228.454 214.55 221.969 218.68 221.969 218.68C221.969 218.68 200.06 210.096 207.425 203.426C211.956 199.334 217.252 206.236 217.252 206.236Z" fill="black"/>
<g opacity="0.5">
<path d="M217.785 206.931C217.785 206.931 224.586 208.629 224.417 209.146C224.247 209.664 218.511 207.51 218.735 208.436C218.959 209.362 224.139 212.242 223.923 212.929C223.706 213.616 219.236 209.841 219.221 210.513C219.206 211.184 221.475 215.423 221.221 216.179C220.966 216.936 219.306 211.694 218.735 211.964C218.163 212.234 216.48 215.647 216.488 214.705C216.496 213.763 218.387 210.405 217.885 209.386C217.384 208.367 210.876 210.806 210.073 209.764C209.27 208.722 216.527 208.861 217.785 206.931Z" fill="white"/>
<path d="M214.288 205.873C214.288 205.873 208.945 203.704 208.181 205.101C207.417 206.498 209.223 205.41 214.288 205.873Z" fill="white"/>
</g>
<path d="M263.495 127.013H208.443C207.814 127.025 207.189 126.902 206.61 126.653C206.032 126.404 205.513 126.034 205.088 125.569C204.664 125.103 204.344 124.553 204.149 123.954C203.954 123.355 203.889 122.722 203.958 122.096L206.922 88.1893C207.058 86.8563 207.677 85.6191 208.663 84.7116C209.649 83.8041 210.933 83.2891 212.272 83.2639H267.324C267.955 83.2524 268.58 83.3755 269.16 83.625C269.739 83.8744 270.259 84.2445 270.684 84.7106C271.109 85.1766 271.43 85.7279 271.625 86.3278C271.821 86.9276 271.886 87.5622 271.817 88.1893L268.845 122.088C268.711 123.421 268.092 124.66 267.106 125.567C266.12 126.475 264.835 126.99 263.495 127.013Z" fill="#263238"/>
<path d="M231.055 102.402C230.808 104.834 229.677 107.091 227.878 108.746C226.078 110.401 223.734 111.338 221.289 111.38C220.139 111.402 218.998 111.177 217.942 110.723C216.885 110.268 215.938 109.594 215.163 108.744C214.388 107.894 213.803 106.889 213.447 105.796C213.091 104.702 212.972 103.545 213.098 102.402C213.357 99.9748 214.491 97.7252 216.289 96.074C218.086 94.4228 220.424 93.4833 222.864 93.4313L223.266 88.8379C219.573 88.9037 216.033 90.3204 213.315 92.8198C210.596 95.3192 208.888 98.7282 208.513 102.402C208.323 104.127 208.503 105.873 209.039 107.524C209.576 109.174 210.458 110.691 211.626 111.975C212.794 113.259 214.222 114.279 215.815 114.968C217.408 115.658 219.129 116.001 220.865 115.974C224.558 115.908 228.099 114.49 230.818 111.989C233.537 109.488 235.244 106.077 235.618 102.402H231.055Z" fill="#6730DE"/>
<path d="M237.254 100.418C237.444 98.6927 237.264 96.9469 236.727 95.2964C236.191 93.6459 235.309 92.1284 234.141 90.8448C232.972 89.5612 231.544 88.5409 229.952 87.8515C228.359 87.162 226.638 86.8194 224.902 86.8462L224.501 91.4782C225.65 91.4582 226.791 91.6832 227.847 92.1382C228.902 92.5933 229.849 93.2679 230.624 94.1173C231.399 94.9666 231.984 95.9712 232.341 97.0642C232.697 98.1573 232.817 99.3137 232.692 100.457L237.254 100.418Z" fill="#6730DE"/>
<path opacity="0.7" d="M237.254 100.418C237.444 98.6927 237.264 96.9469 236.727 95.2964C236.191 93.6459 235.309 92.1284 234.141 90.8448C232.972 89.5612 231.544 88.5409 229.952 87.8515C228.359 87.162 226.638 86.8194 224.902 86.8462L224.501 91.4782C225.65 91.4582 226.791 91.6832 227.847 92.1382C228.902 92.5933 229.849 93.2679 230.624 94.1173C231.399 94.9666 231.984 95.9712 232.341 97.0642C232.697 98.1573 232.817 99.3137 232.692 100.457L237.254 100.418Z" fill="white"/>
<path d="M226.014 102.402C225.901 103.509 225.386 104.537 224.567 105.291C223.747 106.045 222.68 106.473 221.567 106.493C221.044 106.502 220.524 106.399 220.044 106.191C219.563 105.984 219.132 105.676 218.779 105.289C218.427 104.902 218.16 104.445 217.998 103.947C217.836 103.449 217.781 102.922 217.838 102.402C217.952 101.295 218.467 100.268 219.286 99.5152C220.106 98.7626 221.173 98.3366 222.285 98.3178L222.463 96.2334C220.783 96.2645 219.172 96.9101 217.936 98.0481C216.7 99.1861 215.924 100.738 215.754 102.409C215.667 103.195 215.749 103.99 215.994 104.742C216.238 105.494 216.64 106.185 217.172 106.769C217.705 107.353 218.356 107.818 219.081 108.131C219.807 108.444 220.592 108.599 221.382 108.585C223.063 108.556 224.676 107.911 225.913 106.773C227.151 105.635 227.929 104.082 228.098 102.409L226.014 102.402Z" fill="#6730DE"/>
<path opacity="0.7" d="M226.014 102.402C225.901 103.509 225.386 104.537 224.567 105.291C223.747 106.045 222.68 106.473 221.567 106.493C221.044 106.502 220.524 106.399 220.044 106.191C219.563 105.984 219.132 105.676 218.779 105.289C218.427 104.902 218.16 104.445 217.998 103.947C217.836 103.449 217.781 102.922 217.838 102.402C217.952 101.295 218.467 100.268 219.286 99.5152C220.106 98.7626 221.173 98.3366 222.285 98.3178L222.463 96.2334C220.783 96.2645 219.172 96.9101 217.936 98.0481C216.7 99.1861 215.924 100.738 215.754 102.409C215.667 103.195 215.749 103.99 215.994 104.742C216.238 105.494 216.64 106.185 217.172 106.769C217.705 107.353 218.356 107.818 219.081 108.131C219.807 108.444 220.592 108.599 221.382 108.585C223.063 108.556 224.676 107.911 225.913 106.773C227.151 105.635 227.929 104.082 228.098 102.409L226.014 102.402Z" fill="white"/>
<path d="M228.832 101.499C228.919 100.712 228.837 99.9165 228.592 99.1642C228.347 98.4119 227.944 97.7205 227.411 97.1361C226.878 96.5516 226.226 96.0876 225.499 95.7749C224.772 95.4622 223.987 95.3081 223.196 95.3227L222.988 97.384C223.511 97.3755 224.029 97.4783 224.509 97.6854C224.989 97.8925 225.42 98.1993 225.773 98.5855C226.125 98.9716 226.392 99.4283 226.554 99.9252C226.717 100.422 226.772 100.948 226.717 101.468L228.832 101.499Z" fill="#6730DE"/>
<path d="M255.296 88.8379L254.894 93.4313C256.044 93.4102 257.184 93.6342 258.24 94.0883C259.296 94.5425 260.243 95.2164 261.018 96.0651C261.793 96.9139 262.378 97.918 262.734 99.0107C263.091 100.103 263.211 101.259 263.085 102.402C262.838 104.833 261.709 107.089 259.911 108.744C258.113 110.398 255.77 111.336 253.327 111.38C252.177 111.403 251.035 111.179 249.978 110.725C248.921 110.271 247.973 109.596 247.198 108.747C246.423 107.897 245.838 106.891 245.482 105.797C245.127 104.703 245.009 103.545 245.136 102.402C245.37 99.9645 246.504 97.7017 248.317 96.0561L245.36 92.8137C242.618 95.2992 240.9 98.7178 240.543 102.402C240.353 104.127 240.533 105.873 241.07 107.523C241.607 109.174 242.488 110.691 243.657 111.975C244.825 113.259 246.253 114.279 247.846 114.968C249.438 115.658 251.16 116 252.895 115.974C256.588 115.906 260.128 114.488 262.847 111.987C265.565 109.486 267.273 106.076 267.648 102.402C267.836 100.677 267.656 98.9323 267.119 97.2827C266.581 95.6332 265.699 94.1167 264.531 92.834C263.363 91.5513 261.936 90.5316 260.343 89.8426C258.751 89.1537 257.031 88.8112 255.296 88.8379Z" fill="#6730DE"/>
<path opacity="0.7" d="M255.296 88.8379L254.894 93.4313C256.044 93.4102 257.184 93.6342 258.24 94.0883C259.296 94.5425 260.243 95.2164 261.018 96.0651C261.793 96.9139 262.378 97.918 262.734 99.0107C263.091 100.103 263.211 101.259 263.085 102.402C262.838 104.833 261.709 107.089 259.911 108.744C258.113 110.398 255.77 111.336 253.327 111.38C252.177 111.403 251.035 111.179 249.978 110.725C248.921 110.271 247.973 109.596 247.198 108.747C246.423 107.897 245.838 106.891 245.482 105.797C245.127 104.703 245.009 103.545 245.136 102.402C245.37 99.9645 246.504 97.7017 248.317 96.0561L245.36 92.8137C242.618 95.2992 240.9 98.7178 240.543 102.402C240.353 104.127 240.533 105.873 241.07 107.523C241.607 109.174 242.488 110.691 243.657 111.975C244.825 113.259 246.253 114.279 247.846 114.968C249.438 115.658 251.16 116 252.895 115.974C256.588 115.906 260.128 114.488 262.847 111.987C265.565 109.486 267.273 106.076 267.648 102.402C267.836 100.677 267.656 98.9323 267.119 97.2827C266.581 95.6332 265.699 94.1167 264.531 92.834C263.363 91.5513 261.936 90.5316 260.343 89.8426C258.751 89.1537 257.031 88.8112 255.296 88.8379Z" fill="white"/>
<path d="M244.473 90.2967L247.437 93.5468C249.221 91.8743 251.569 90.9345 254.015 90.9143L254.416 86.3286C250.722 86.3596 247.173 87.7756 244.473 90.2967Z" fill="#6730DE"/>
<path opacity="0.3" d="M244.473 90.2967L247.437 93.5468C249.221 91.8743 251.569 90.9345 254.015 90.9143L254.416 86.3286C250.722 86.3596 247.173 87.7756 244.473 90.2967Z" fill="black"/>
<path d="M254.686 95.8397L254.493 98.0322C255.043 98.021 255.589 98.1275 256.094 98.3445C256.6 98.5615 257.053 98.8841 257.424 99.2905C257.794 99.697 258.074 100.178 258.243 100.701C258.413 101.224 258.469 101.778 258.407 102.324C258.289 103.48 257.753 104.553 256.901 105.342C256.048 106.131 254.936 106.581 253.775 106.609C253.226 106.62 252.681 106.514 252.176 106.297C251.671 106.081 251.218 105.759 250.848 105.353C250.477 104.948 250.197 104.468 250.027 103.945C249.857 103.423 249.8 102.87 249.861 102.324C249.976 101.155 250.528 100.072 251.405 99.2905L249.992 97.7465C248.676 98.933 247.85 100.568 247.676 102.332C247.585 103.157 247.671 103.992 247.928 104.782C248.185 105.571 248.607 106.296 249.167 106.909C249.727 107.522 250.411 108.009 251.173 108.336C251.936 108.664 252.76 108.825 253.59 108.809C255.354 108.779 257.045 108.103 258.344 106.909C259.643 105.715 260.459 104.087 260.638 102.332C260.731 101.503 260.645 100.663 260.386 99.87C260.128 99.0766 259.702 98.3478 259.138 97.7327C258.574 97.1176 257.885 96.6304 257.117 96.3039C256.349 95.9773 255.52 95.8191 254.686 95.8397Z" fill="#6730DE"/>
<path d="M249.514 96.504L250.926 98.048C251.784 97.2519 252.906 96.8033 254.076 96.7896L254.261 94.5972C252.496 94.6164 250.802 95.2968 249.514 96.504Z" fill="#6730DE"/>
<path opacity="0.3" d="M249.514 96.504L250.926 98.048C251.784 97.2519 252.906 96.8033 254.076 96.7896L254.261 94.5972C252.496 94.6164 250.802 95.2968 249.514 96.504Z" fill="black"/>
<path d="M214.635 121.91C214.45 121.914 214.266 121.878 214.096 121.804C213.926 121.731 213.774 121.623 213.649 121.486C213.524 121.35 213.43 121.188 213.372 121.013C213.314 120.837 213.295 120.651 213.315 120.467C213.354 120.08 213.532 119.721 213.816 119.455C214.099 119.19 214.47 119.036 214.859 119.023C215.044 119.02 215.227 119.056 215.397 119.129C215.567 119.202 215.719 119.311 215.844 119.447C215.969 119.584 216.063 119.745 216.121 119.921C216.179 120.097 216.198 120.283 216.179 120.467C216.138 120.853 215.96 121.211 215.676 121.477C215.392 121.742 215.023 121.896 214.635 121.91Z" fill="white"/>
<path d="M229.442 121.2H218.634C218.539 121.203 218.445 121.186 218.358 121.149C218.271 121.112 218.193 121.057 218.13 120.988C218.066 120.918 218.018 120.835 217.989 120.745C217.96 120.656 217.951 120.561 217.962 120.467C217.962 120.262 218.043 120.066 218.188 119.921C218.333 119.776 218.529 119.695 218.734 119.695H229.542C229.64 119.691 229.738 119.709 229.828 119.748C229.918 119.787 229.998 119.846 230.063 119.92C230.127 119.994 230.174 120.082 230.2 120.176C230.226 120.271 230.231 120.37 230.214 120.467C230.204 120.665 230.118 120.851 229.974 120.988C229.83 121.124 229.64 121.201 229.442 121.2Z" fill="white"/>
<path d="M226.47 124.095H218.394C218.297 124.097 218.2 124.078 218.11 124.039C218.021 123.999 217.941 123.941 217.877 123.867C217.813 123.793 217.766 123.706 217.739 123.612C217.712 123.518 217.707 123.419 217.723 123.323C217.734 123.122 217.819 122.932 217.961 122.789C218.104 122.647 218.294 122.562 218.495 122.551H226.578C226.675 122.549 226.772 122.568 226.862 122.607C226.951 122.647 227.031 122.705 227.095 122.779C227.159 122.853 227.206 122.94 227.233 123.034C227.26 123.128 227.265 123.227 227.249 123.323C227.236 123.525 227.15 123.715 227.006 123.857C226.862 123.999 226.671 124.084 226.47 124.095Z" fill="white"/>
<path d="M245.931 121.91C245.746 121.915 245.561 121.879 245.391 121.807C245.22 121.734 245.066 121.626 244.941 121.489C244.815 121.353 244.72 121.191 244.662 121.014C244.604 120.838 244.584 120.651 244.604 120.467C244.643 120.08 244.821 119.721 245.105 119.455C245.389 119.19 245.759 119.036 246.148 119.023C246.333 119.02 246.516 119.056 246.686 119.129C246.856 119.202 247.009 119.311 247.133 119.447C247.258 119.584 247.353 119.745 247.41 119.921C247.468 120.097 247.487 120.283 247.468 120.467C247.427 120.852 247.25 121.209 246.968 121.474C246.686 121.739 246.318 121.894 245.931 121.91Z" fill="white"/>
<path d="M260.738 121.2H249.93C249.836 121.202 249.743 121.183 249.657 121.146C249.57 121.109 249.493 121.054 249.429 120.985C249.366 120.915 249.318 120.833 249.288 120.744C249.259 120.655 249.249 120.56 249.259 120.467C249.27 120.266 249.355 120.076 249.497 119.933C249.64 119.791 249.83 119.706 250.031 119.695H260.839C260.937 119.691 261.035 119.709 261.125 119.748C261.215 119.787 261.295 119.846 261.36 119.92C261.424 119.994 261.471 120.082 261.497 120.176C261.523 120.271 261.528 120.37 261.51 120.467C261.501 120.665 261.415 120.851 261.271 120.988C261.127 121.124 260.937 121.201 260.738 121.2Z" fill="white"/>
<path d="M257.766 124.095H249.691C249.594 124.097 249.497 124.078 249.407 124.039C249.318 123.999 249.238 123.941 249.174 123.867C249.11 123.793 249.063 123.706 249.036 123.612C249.009 123.518 249.004 123.419 249.02 123.323C249.031 123.122 249.116 122.932 249.258 122.789C249.401 122.647 249.59 122.562 249.792 122.551H257.874C257.972 122.549 258.069 122.568 258.159 122.607C258.248 122.647 258.328 122.705 258.392 122.779C258.456 122.853 258.503 122.94 258.53 123.034C258.556 123.128 258.562 123.227 258.546 123.323C258.533 123.525 258.447 123.715 258.303 123.857C258.159 123.999 257.968 124.084 257.766 124.095Z" fill="white"/>
<path d="M192.424 145.502H109.952C109.322 145.514 108.696 145.391 108.118 145.142C107.539 144.893 107.02 144.524 106.594 144.058C106.169 143.593 105.848 143.043 105.652 142.444C105.457 141.845 105.391 141.211 105.459 140.585L110.044 88.1891C110.18 86.8561 110.799 85.619 111.785 84.7115C112.771 83.804 114.055 83.289 115.394 83.2638H197.875C198.505 83.2534 199.13 83.3773 199.708 83.6272C200.287 83.8772 200.806 84.2474 201.23 84.7134C201.654 85.1793 201.974 85.7302 202.169 86.3295C202.364 86.9288 202.429 87.5628 202.36 88.1891L197.782 140.616C197.637 141.943 197.013 143.172 196.027 144.072C195.04 144.971 193.759 145.48 192.424 145.502Z" fill="#6730DE"/>
<path opacity="0.7" d="M192.424 145.502H109.952C109.322 145.514 108.696 145.391 108.118 145.142C107.539 144.893 107.02 144.524 106.594 144.058C106.169 143.593 105.848 143.043 105.652 142.444C105.457 141.845 105.391 141.211 105.459 140.585L110.044 88.1891C110.18 86.8561 110.799 85.619 111.785 84.7115C112.771 83.804 114.055 83.289 115.394 83.2638H197.875C198.505 83.2534 199.13 83.3773 199.708 83.6272C200.287 83.8772 200.806 84.2474 201.23 84.7134C201.654 85.1793 201.974 85.7302 202.169 86.3295C202.364 86.9288 202.429 87.5628 202.36 88.1891L197.782 140.616C197.637 141.943 197.013 143.172 196.027 144.072C195.04 144.971 193.759 145.48 192.424 145.502Z" fill="white"/>
<path d="M113.395 129.838H111.303L114.105 97.8159H116.197L113.395 129.838Z" fill="#6730DE"/>
<path d="M116.367 129.839H114.267L116.328 106.285H118.428L116.367 129.839Z" fill="#263238"/>
<path d="M121.077 129.839H118.984L120.328 114.445H122.42L121.077 129.839Z" fill="#6730DE"/>
<path d="M124.041 129.839H121.949L123.554 111.48H125.647L124.041 129.839Z" fill="#263238"/>
<path d="M128.758 129.839H126.658L129.051 102.479H131.151L128.758 129.839Z" fill="#6730DE"/>
<path d="M131.722 129.839H129.623L131.692 106.285H133.784L131.722 129.839Z" fill="#263238"/>
<path d="M136.431 129.839H134.339L136.401 106.285H138.493L136.431 129.839Z" fill="#6730DE"/>
<path d="M139.396 129.839H137.304L139.882 100.348H141.974L139.396 129.839Z" fill="#263238"/>
<path d="M144.113 129.839H142.013L143.418 113.828H145.51L144.113 129.839Z" fill="#6730DE"/>
<path d="M147.077 129.839H144.985L147.046 106.285H149.138L147.077 129.839Z" fill="#263238"/>
<path d="M151.786 129.839H149.694L152.088 102.479H154.18L151.786 129.839Z" fill="#6730DE"/>
<path d="M154.759 129.839H152.659L155.561 96.6426H157.661L154.759 129.839Z" fill="#263238"/>
<path d="M159.468 129.839H157.375L158.132 121.123H160.232L159.468 129.839Z" fill="#6730DE"/>
<path d="M162.432 129.838H160.34L161.753 113.704H163.845L162.432 129.838Z" fill="#263238"/>
<path d="M167.141 129.839H165.049L166.4 114.445H168.492L167.141 129.839Z" fill="#6730DE"/>
<path d="M170.114 129.839H168.014L170.662 99.6074H172.754L170.114 129.839Z" fill="#263238"/>
<path d="M174.823 129.839H172.731L174.468 109.999H176.56L174.823 129.839Z" fill="#6730DE"/>
<path d="M177.787 129.838H175.695L179.054 91.4468H181.146L177.787 129.838Z" fill="#263238"/>
<path d="M182.504 129.839H180.404L182.659 104.062H184.758L182.504 129.839Z" fill="#6730DE"/>
<path d="M185.469 129.839H183.376L185.438 106.285H187.53L185.469 129.839Z" fill="#263238"/>
<path d="M190.178 129.839H188.086L190.927 97.3838H193.019L190.178 129.839Z" fill="#6730DE"/>
<path d="M193.142 129.839H191.05L192.726 110.739H194.818L193.142 129.839Z" fill="#263238"/>
<path d="M112.592 138.578C112.328 138.584 112.066 138.533 111.823 138.43C111.581 138.326 111.363 138.172 111.185 137.978C111.006 137.783 110.872 137.553 110.789 137.302C110.707 137.052 110.68 136.786 110.708 136.524C110.77 135.968 111.03 135.453 111.442 135.074C111.853 134.695 112.388 134.478 112.947 134.463C113.212 134.457 113.474 134.507 113.717 134.611C113.961 134.715 114.179 134.87 114.357 135.065C114.536 135.261 114.67 135.492 114.752 135.743C114.834 135.995 114.861 136.261 114.831 136.524C114.768 137.079 114.506 137.592 114.095 137.969C113.684 138.347 113.15 138.563 112.592 138.578Z" fill="#263238"/>
<path d="M133.66 137.566H118.305C118.171 137.569 118.038 137.544 117.915 137.491C117.792 137.439 117.681 137.36 117.59 137.262C117.5 137.163 117.431 137.046 117.389 136.919C117.348 136.792 117.333 136.657 117.348 136.524C117.378 136.24 117.51 135.977 117.721 135.783C117.931 135.59 118.205 135.48 118.49 135.474H133.845C133.98 135.472 134.113 135.499 134.236 135.552C134.359 135.606 134.47 135.685 134.56 135.784C134.651 135.883 134.719 136 134.761 136.128C134.803 136.256 134.817 136.391 134.803 136.524C134.772 136.807 134.64 137.07 134.429 137.262C134.219 137.454 133.945 137.562 133.66 137.566Z" fill="#263238"/>
<path d="M129.444 141.689H117.942C117.805 141.692 117.67 141.664 117.546 141.61C117.421 141.555 117.31 141.474 117.219 141.372C117.129 141.27 117.062 141.149 117.023 141.019C116.984 140.888 116.973 140.751 116.992 140.616C117.019 140.332 117.149 140.068 117.359 139.874C117.568 139.68 117.842 139.571 118.127 139.566H129.622C129.757 139.563 129.89 139.589 130.014 139.642C130.138 139.695 130.249 139.774 130.34 139.873C130.43 139.973 130.499 140.09 130.54 140.219C130.581 140.347 130.595 140.482 130.579 140.616C130.556 140.904 130.428 141.173 130.218 141.371C130.009 141.569 129.733 141.682 129.444 141.689Z" fill="#263238"/>
<path opacity="0.3" d="M133.66 137.566H118.305C118.171 137.569 118.038 137.544 117.915 137.491C117.792 137.439 117.681 137.36 117.59 137.262C117.5 137.163 117.431 137.046 117.389 136.919C117.348 136.792 117.333 136.657 117.348 136.524C117.378 136.24 117.51 135.977 117.721 135.783C117.931 135.59 118.205 135.48 118.49 135.474H133.845C133.98 135.472 134.113 135.499 134.236 135.552C134.359 135.606 134.47 135.685 134.56 135.784C134.651 135.883 134.719 136 134.761 136.128C134.803 136.256 134.817 136.391 134.803 136.524C134.772 136.807 134.64 137.07 134.429 137.262C134.219 137.454 133.945 137.562 133.66 137.566Z" fill="white"/>
<path opacity="0.3" d="M129.444 141.689H117.942C117.805 141.692 117.67 141.664 117.546 141.61C117.421 141.555 117.31 141.474 117.219 141.372C117.129 141.27 117.062 141.149 117.023 141.019C116.984 140.888 116.973 140.751 116.992 140.616C117.019 140.332 117.149 140.068 117.359 139.874C117.568 139.68 117.842 139.571 118.127 139.566H129.622C129.757 139.563 129.89 139.589 130.014 139.642C130.138 139.695 130.249 139.774 130.34 139.873C130.43 139.973 130.499 140.09 130.54 140.219C130.581 140.347 130.595 140.482 130.579 140.616C130.556 140.904 130.428 141.173 130.218 141.371C130.009 141.569 129.733 141.682 129.444 141.689Z" fill="white"/>
<path d="M142.963 138.578C142.699 138.582 142.438 138.531 142.196 138.427C141.954 138.323 141.736 138.169 141.558 137.975C141.38 137.781 141.245 137.551 141.163 137.301C141.08 137.051 141.052 136.786 141.079 136.524C141.14 135.968 141.401 135.453 141.812 135.074C142.224 134.695 142.759 134.478 143.318 134.463C143.582 134.457 143.845 134.507 144.088 134.611C144.331 134.715 144.55 134.87 144.728 135.065C144.907 135.261 145.041 135.492 145.123 135.743C145.204 135.995 145.231 136.261 145.201 136.524C145.138 137.079 144.877 137.592 144.466 137.969C144.054 138.347 143.521 138.563 142.963 138.578Z" fill="#6730DE"/>
<path opacity="0.3" d="M142.963 138.578C142.699 138.582 142.438 138.531 142.196 138.427C141.954 138.323 141.736 138.169 141.558 137.975C141.38 137.781 141.245 137.551 141.163 137.301C141.08 137.051 141.052 136.786 141.079 136.524C141.14 135.968 141.401 135.453 141.812 135.074C142.224 134.695 142.759 134.478 143.318 134.463C143.582 134.457 143.845 134.507 144.088 134.611C144.331 134.715 144.55 134.87 144.728 135.065C144.907 135.261 145.041 135.492 145.123 135.743C145.204 135.995 145.231 136.261 145.201 136.524C145.138 137.079 144.877 137.592 144.466 137.969C144.054 138.347 143.521 138.563 142.963 138.578Z" fill="black"/>
<path d="M164.022 137.566H148.667C148.533 137.569 148.4 137.544 148.277 137.491C148.154 137.439 148.043 137.36 147.953 137.262C147.862 137.163 147.794 137.046 147.752 136.919C147.71 136.792 147.696 136.657 147.71 136.524C147.74 136.24 147.873 135.977 148.083 135.783C148.293 135.59 148.567 135.48 148.853 135.474H164.208C164.342 135.472 164.475 135.499 164.598 135.552C164.721 135.606 164.832 135.685 164.922 135.784C165.013 135.883 165.081 136 165.123 136.128C165.165 136.256 165.179 136.391 165.165 136.524C165.135 136.807 165.002 137.07 164.791 137.262C164.581 137.454 164.307 137.562 164.022 137.566Z" fill="#263238"/>
<path d="M159.808 141.689H148.313C148.174 141.696 148.035 141.673 147.907 141.62C147.778 141.567 147.663 141.486 147.569 141.384C147.476 141.281 147.406 141.159 147.365 141.027C147.324 140.894 147.313 140.754 147.332 140.616C147.359 140.332 147.489 140.068 147.699 139.874C147.908 139.68 148.182 139.571 148.467 139.566H159.962C160.097 139.563 160.23 139.589 160.354 139.642C160.478 139.695 160.589 139.774 160.68 139.873C160.77 139.973 160.839 140.09 160.88 140.219C160.921 140.347 160.935 140.482 160.919 140.616C160.899 140.9 160.774 141.167 160.569 141.365C160.363 141.563 160.093 141.679 159.808 141.689Z" fill="#263238"/>
<path opacity="0.3" d="M164.022 137.566H148.667C148.533 137.569 148.4 137.544 148.277 137.491C148.154 137.439 148.043 137.36 147.953 137.262C147.862 137.163 147.794 137.046 147.752 136.919C147.71 136.792 147.696 136.657 147.71 136.524C147.74 136.24 147.873 135.977 148.083 135.783C148.293 135.59 148.567 135.48 148.853 135.474H164.208C164.342 135.472 164.475 135.499 164.598 135.552C164.721 135.606 164.832 135.685 164.922 135.784C165.013 135.883 165.081 136 165.123 136.128C165.165 136.256 165.179 136.391 165.165 136.524C165.135 136.807 165.002 137.07 164.791 137.262C164.581 137.454 164.307 137.562 164.022 137.566Z" fill="white"/>
<path opacity="0.3" d="M159.808 141.689H148.313C148.174 141.696 148.035 141.673 147.907 141.62C147.778 141.567 147.663 141.486 147.569 141.384C147.476 141.281 147.406 141.159 147.365 141.027C147.324 140.894 147.313 140.754 147.332 140.616C147.359 140.332 147.489 140.068 147.699 139.874C147.908 139.68 148.182 139.571 148.467 139.566H159.962C160.097 139.563 160.23 139.589 160.354 139.642C160.478 139.695 160.589 139.774 160.68 139.873C160.77 139.973 160.839 140.09 160.88 140.219C160.921 140.347 160.935 140.482 160.919 140.616C160.899 140.9 160.774 141.167 160.569 141.365C160.363 141.563 160.093 141.679 159.808 141.689Z" fill="white"/>
<path d="M173.325 138.577C173.062 138.582 172.801 138.531 172.559 138.427C172.318 138.323 172.101 138.169 171.923 137.975C171.746 137.78 171.612 137.551 171.53 137.3C171.448 137.05 171.421 136.786 171.449 136.524C171.511 135.968 171.771 135.453 172.183 135.074C172.594 134.695 173.129 134.478 173.688 134.463C173.952 134.458 174.214 134.509 174.456 134.614C174.699 134.718 174.916 134.873 175.093 135.068C175.271 135.263 175.405 135.494 175.486 135.745C175.567 135.996 175.594 136.262 175.564 136.524C175.501 137.079 175.24 137.592 174.829 137.969C174.417 138.346 173.883 138.562 173.325 138.577Z" fill="#6730DE"/>
<path d="M194.424 137.566H179.03C178.896 137.569 178.764 137.544 178.641 137.491C178.518 137.439 178.408 137.36 178.318 137.262C178.228 137.163 178.16 137.046 178.119 136.919C178.078 136.791 178.065 136.657 178.081 136.524C178.107 136.24 178.238 135.976 178.447 135.782C178.657 135.588 178.93 135.479 179.215 135.474H194.57C194.705 135.472 194.838 135.499 194.961 135.552C195.084 135.606 195.195 135.685 195.285 135.784C195.376 135.883 195.444 136 195.486 136.128C195.528 136.256 195.542 136.391 195.528 136.524C195.499 136.801 195.371 137.058 195.169 137.25C194.966 137.441 194.702 137.553 194.424 137.566Z" fill="#263238"/>
<path d="M190.17 141.689H178.675C178.54 141.692 178.407 141.666 178.283 141.613C178.159 141.56 178.048 141.481 177.957 141.382C177.867 141.282 177.798 141.164 177.757 141.036C177.716 140.908 177.702 140.773 177.718 140.639C177.744 140.355 177.875 140.09 178.084 139.897C178.294 139.703 178.567 139.593 178.853 139.589H190.355C190.49 139.583 190.624 139.606 190.749 139.656C190.873 139.706 190.986 139.782 191.079 139.879C191.172 139.977 191.243 140.093 191.287 140.22C191.331 140.347 191.348 140.482 191.336 140.616C191.314 140.909 191.182 141.183 190.965 141.383C190.749 141.582 190.464 141.691 190.17 141.689Z" fill="#263238"/>
<path opacity="0.3" d="M194.424 137.566H179.03C178.896 137.569 178.764 137.544 178.641 137.491C178.518 137.439 178.408 137.36 178.318 137.262C178.228 137.163 178.16 137.046 178.119 136.919C178.078 136.791 178.065 136.657 178.081 136.524C178.107 136.24 178.238 135.976 178.447 135.782C178.657 135.588 178.93 135.479 179.215 135.474H194.57C194.705 135.472 194.838 135.499 194.961 135.552C195.084 135.606 195.195 135.685 195.285 135.784C195.376 135.883 195.444 136 195.486 136.128C195.528 136.256 195.542 136.391 195.528 136.524C195.499 136.801 195.371 137.058 195.169 137.25C194.966 137.441 194.702 137.553 194.424 137.566Z" fill="white"/>
<path opacity="0.3" d="M190.17 141.689H178.675C178.54 141.692 178.407 141.666 178.283 141.613C178.159 141.56 178.048 141.481 177.957 141.382C177.867 141.282 177.798 141.164 177.757 141.036C177.716 140.908 177.702 140.773 177.718 140.639C177.744 140.355 177.875 140.09 178.084 139.897C178.294 139.703 178.567 139.593 178.853 139.589H190.355C190.49 139.583 190.624 139.606 190.749 139.656C190.873 139.706 190.986 139.782 191.079 139.879C191.172 139.977 191.243 140.093 191.287 140.22C191.331 140.347 191.348 140.482 191.336 140.616C191.314 140.909 191.182 141.183 190.965 141.383C190.749 141.582 190.464 141.691 190.17 141.689Z" fill="white"/>
<path d="M276.071 78.3386H228.114C227.484 78.3499 226.859 78.227 226.28 77.978C225.701 77.729 225.182 77.3597 224.757 76.8945C224.332 76.4293 224.011 75.8789 223.815 75.28C223.619 74.6811 223.553 74.0474 223.621 73.4209L226.169 44.2934C226.305 42.9611 226.924 41.7249 227.91 40.8187C228.896 39.9124 230.18 39.399 231.519 39.3757H279.475C280.105 39.3644 280.731 39.4873 281.309 39.7363C281.888 39.9853 282.407 40.3546 282.832 40.8198C283.258 41.285 283.579 41.8354 283.775 42.4343C283.97 43.0332 284.036 43.6669 283.968 44.2934L281.421 73.4518C281.278 74.7785 280.655 76.0073 279.67 76.9072C278.685 77.8071 277.405 78.3161 276.071 78.3386Z" fill="#6730DE"/>
<path d="M248.843 56.9847C248.596 59.3865 247.48 61.6151 245.703 63.2505C243.927 64.8859 241.614 65.815 239.2 65.8627C238.064 65.8826 236.936 65.6603 235.892 65.2104C234.848 64.7605 233.911 64.0934 233.145 63.2534C232.379 62.4135 231.801 61.4201 231.448 60.3392C231.096 59.2583 230.978 58.1148 231.102 56.9847C231.345 54.5817 232.461 52.3511 234.238 50.7151C236.014 49.0791 238.329 48.1511 240.744 48.1067C241.881 48.0868 243.009 48.3091 244.053 48.759C245.097 49.2089 246.033 49.876 246.799 50.716C247.565 51.5559 248.144 52.5493 248.496 53.6302C248.849 54.7111 248.967 55.8546 248.843 56.9847Z" fill="#6730DE"/>
<path opacity="0.7" d="M248.843 56.9847C248.596 59.3865 247.48 61.6151 245.703 63.2505C243.927 64.8859 241.614 65.815 239.2 65.8627C238.064 65.8826 236.936 65.6603 235.892 65.2104C234.848 64.7605 233.911 64.0934 233.145 63.2534C232.379 62.4135 231.801 61.4201 231.448 60.3392C231.096 59.2583 230.978 58.1148 231.102 56.9847C231.345 54.5817 232.461 52.3511 234.238 50.7151C236.014 49.0791 238.329 48.1511 240.744 48.1067C241.881 48.0868 243.009 48.3091 244.053 48.759C245.097 49.2089 246.033 49.876 246.799 50.716C247.565 51.5559 248.144 52.5493 248.496 53.6302C248.849 54.7111 248.967 55.8546 248.843 56.9847Z" fill="white"/>
<path d="M242.651 55.4105C242.481 57.3559 241.74 58.9308 239.795 58.9308C237.849 58.9308 237.378 57.3868 237.548 55.4105C237.718 53.4341 238.467 51.8901 240.412 51.8901C242.358 51.8901 242.821 53.465 242.651 55.4105Z" fill="#263238"/>
<path d="M239.694 60.0269C235.626 60.0269 233.418 60.9301 232.376 62.2579C233.116 63.3826 234.128 64.3025 235.319 64.9326C236.509 65.5627 237.838 65.8828 239.185 65.8632C240.614 65.8443 242.021 65.5116 243.307 64.8886C244.593 64.2656 245.726 63.3675 246.627 62.2579C245.816 60.9301 243.77 60.0269 239.694 60.0269Z" fill="#263238"/>
<path d="M269.756 47.0726H255.343C255.187 47.0758 255.031 47.0455 254.888 46.9838C254.744 46.9222 254.615 46.8305 254.51 46.715C254.405 46.5995 254.325 46.4628 254.277 46.3141C254.229 46.1654 254.213 46.0081 254.231 45.8528C254.265 45.5223 254.419 45.2157 254.664 44.9909C254.908 44.7662 255.227 44.6389 255.559 44.633H269.972C270.128 44.6298 270.284 44.6601 270.427 44.7218C270.571 44.7834 270.7 44.8751 270.805 44.9906C270.91 45.1061 270.99 45.2428 271.038 45.3915C271.086 45.5402 271.102 45.6975 271.084 45.8528C271.052 46.1839 270.898 46.4915 270.653 46.7166C270.408 46.9417 270.089 47.0684 269.756 47.0726Z" fill="white"/>
<path d="M273.6 56.0816H254.555C254.399 56.0848 254.244 56.0546 254.1 55.9929C253.957 55.9312 253.828 55.8396 253.723 55.724C253.617 55.6085 253.538 55.4718 253.49 55.3231C253.442 55.1744 253.426 55.0171 253.444 54.8619C253.477 54.5306 253.631 54.2231 253.875 53.9971C254.12 53.771 254.438 53.6421 254.771 53.6344H273.817C273.973 53.6323 274.129 53.6636 274.272 53.7261C274.416 53.7887 274.544 53.8811 274.65 53.9972C274.755 54.1133 274.834 54.2504 274.882 54.3995C274.93 54.5486 274.946 54.7062 274.928 54.8619C274.896 55.193 274.743 55.5006 274.498 55.7257C274.253 55.9507 273.933 56.0775 273.6 56.0816Z" fill="white"/>
<path d="M277.067 60.5823H254.162C254.005 60.5855 253.85 60.5553 253.707 60.4936C253.563 60.4319 253.434 60.3403 253.329 60.2248C253.224 60.1092 253.144 59.9725 253.096 59.8238C253.048 59.6751 253.032 59.5179 253.05 59.3626C253.084 59.0321 253.238 58.7255 253.482 58.5007C253.727 58.2759 254.046 58.1486 254.378 58.1428H277.283C277.439 58.1396 277.594 58.1699 277.738 58.2315C277.882 58.2932 278.01 58.3849 278.116 58.5004C278.221 58.6159 278.3 58.7526 278.348 58.9013C278.397 59.05 278.412 59.2073 278.395 59.3626C278.362 59.6937 278.209 60.0013 277.964 60.2264C277.719 60.4514 277.4 60.5782 277.067 60.5823Z" fill="white"/>
<path d="M275.129 65.091H253.768C253.611 65.0931 253.456 65.0618 253.312 64.9993C253.169 64.9367 253.04 64.8443 252.935 64.7282C252.83 64.6121 252.75 64.475 252.702 64.3259C252.654 64.1768 252.639 64.0192 252.656 63.8635C252.692 63.5337 252.846 63.228 253.09 63.0036C253.335 62.7791 253.652 62.6512 253.984 62.6438H275.345C275.501 62.6406 275.657 62.6708 275.8 62.7325C275.944 62.7942 276.073 62.8858 276.178 63.0014C276.283 63.1169 276.363 63.2536 276.411 63.4023C276.459 63.551 276.475 63.7083 276.457 63.8635C276.425 64.1954 276.272 64.5039 276.027 64.7303C275.782 64.9566 275.462 65.085 275.129 65.091Z" fill="white"/>
<path d="M272.396 69.5919H253.374C253.218 69.5951 253.063 69.5648 252.919 69.5031C252.775 69.4415 252.647 69.3498 252.541 69.2343C252.436 69.1188 252.357 68.9821 252.309 68.8334C252.26 68.6847 252.245 68.5274 252.262 68.3721C252.295 68.0402 252.448 67.7317 252.692 67.5054C252.937 67.2791 253.257 67.1507 253.59 67.1446H272.635C272.792 67.1425 272.947 67.1738 273.091 67.2364C273.235 67.2989 273.363 67.3913 273.468 67.5074C273.574 67.6235 273.653 67.7607 273.701 67.9098C273.749 68.0588 273.765 68.2165 273.747 68.3721C273.713 68.7065 273.556 69.0163 273.306 69.2416C273.057 69.4669 272.732 69.5917 272.396 69.5919Z" fill="white"/>
<path d="M274.342 74.0926H252.981C252.824 74.0958 252.669 74.0655 252.525 74.0039C252.382 73.9422 252.253 73.8505 252.148 73.735C252.043 73.6195 251.963 73.4828 251.915 73.3341C251.867 73.1854 251.851 73.0281 251.869 72.8728C251.901 72.5417 252.054 72.2341 252.299 72.009C252.545 71.7839 252.864 71.6572 253.197 71.6531H274.558C274.714 71.6499 274.869 71.6801 275.013 71.7418C275.157 71.8035 275.285 71.8951 275.391 72.0106C275.496 72.1262 275.575 72.2628 275.623 72.4116C275.671 72.5603 275.687 72.7175 275.67 72.8728C275.634 73.2027 275.48 73.5084 275.235 73.7328C274.991 73.9572 274.673 74.0851 274.342 74.0926Z" fill="white"/>
<path d="M213.724 78.3385H131.236C130.606 78.3499 129.981 78.2269 129.402 77.978C128.823 77.729 128.304 77.3596 127.879 76.8944C127.454 76.4292 127.133 75.8789 126.937 75.28C126.741 74.681 126.675 74.0473 126.743 73.4209L131.328 21.0175C131.464 19.6853 132.084 18.449 133.07 17.5428C134.056 16.6365 135.339 16.1232 136.678 16.0999H219.128C219.758 16.0884 220.383 16.2112 220.961 16.4603C221.54 16.7094 222.058 17.0789 222.483 17.5442C222.907 18.0096 223.228 18.5601 223.423 19.159C223.618 19.7579 223.683 20.3915 223.613 21.0175L219.066 73.4517C218.922 74.7765 218.3 76.0033 217.317 76.9027C216.334 77.8021 215.056 78.3125 213.724 78.3385Z" fill="#6730DE"/>
<path opacity="0.7" d="M213.724 78.3385H131.236C130.606 78.3499 129.981 78.2269 129.402 77.978C128.823 77.729 128.304 77.3596 127.879 76.8944C127.454 76.4292 127.133 75.8789 126.937 75.28C126.741 74.681 126.675 74.0473 126.743 73.4209L131.328 21.0175C131.464 19.6853 132.084 18.449 133.07 17.5428C134.056 16.6365 135.339 16.1232 136.678 16.0999H219.128C219.758 16.0884 220.383 16.2112 220.961 16.4603C221.54 16.7094 222.058 17.0789 222.483 17.5442C222.907 18.0096 223.228 18.5601 223.423 19.159C223.618 19.7579 223.683 20.3915 223.613 21.0175L219.066 73.4517C218.922 74.7765 218.3 76.0033 217.317 76.9027C216.334 77.8021 215.056 78.3125 213.724 78.3385Z" fill="white"/>
<path d="M221.915 40.8115C220.317 35.0446 217.793 29.2701 214.118 29.2701C207.17 29.2701 203.796 40.1398 200.222 51.6581C197.072 61.7713 193.814 72.2242 188.735 72.2242C182.288 72.2242 180.52 59.2932 178.814 46.7868C176.9 32.775 175.093 19.5352 166.787 19.5352C158.48 19.5352 154.365 32.775 149.996 46.7868C146.097 59.2932 142.075 72.2242 135.621 72.2242C132.61 72.2242 129.808 63.3153 128.333 55.3946L127.662 63.1146C129.267 68.8351 131.776 74.5247 135.42 74.5247C143.727 74.5247 147.849 61.2849 152.211 47.2731C156.071 34.7744 160.14 21.8357 166.586 21.8357C173.032 21.8357 174.8 34.7744 176.506 47.3117C178.421 61.3235 180.227 74.5633 188.534 74.5633C195.482 74.5633 198.855 63.6936 202.43 52.1753C205.58 42.0621 208.837 31.6092 213.925 31.6092C216.959 31.6092 219.784 40.6416 221.243 48.5932L221.915 40.8115Z" fill="#6730DE"/>
<path d="M169.3 22.6039C170.692 21.2712 170.831 19.1572 169.61 17.8822C168.39 16.6071 166.272 16.6538 164.88 17.9864C163.487 19.3191 163.348 21.4331 164.569 22.7081C165.79 23.9832 167.908 23.9366 169.3 22.6039Z" fill="#263238"/>
<path d="M168.178 21.4229C168.868 20.7624 168.934 19.7127 168.327 19.0783C167.719 18.444 166.668 18.4652 165.978 19.1257C165.288 19.7863 165.221 20.836 165.829 21.4704C166.436 22.1047 167.488 22.0835 168.178 21.4229Z" fill="#6730DE"/>
<path d="M174.105 6.17206H162.525C161.919 6.18373 161.339 6.41609 160.893 6.82548C160.446 7.23487 160.165 7.79313 160.101 8.39542L159.916 10.5107C159.885 10.7938 159.915 11.0803 160.003 11.3509C160.092 11.6216 160.237 11.8704 160.429 12.0807C160.621 12.291 160.855 12.458 161.117 12.5706C161.379 12.6833 161.661 12.739 161.946 12.7341H165.806L166.956 14.4711C167.032 14.5733 167.131 14.6563 167.245 14.7135C167.359 14.7707 167.485 14.8005 167.612 14.8005C167.74 14.8005 167.866 14.7707 167.979 14.7135C168.093 14.6563 168.192 14.5733 168.269 14.4711L169.72 12.7341H173.58C174.185 12.7222 174.764 12.4896 175.209 12.08C175.654 11.6705 175.934 11.1123 175.996 10.5107L176.182 8.39542C176.213 8.10831 176.182 7.8178 176.091 7.54376C175.999 7.26972 175.85 7.01859 175.653 6.80752C175.456 6.59645 175.216 6.43041 174.948 6.32074C174.681 6.21107 174.393 6.16036 174.105 6.17206Z" fill="#6730DE"/>
<path d="M173.202 8.96688H162.68C162.605 8.96852 162.532 8.95421 162.464 8.92494C162.396 8.89566 162.335 8.8521 162.285 8.79719C162.235 8.74229 162.198 8.67733 162.175 8.60671C162.153 8.53609 162.146 8.46146 162.155 8.38788C162.176 8.23758 162.25 8.09963 162.363 7.99805C162.476 7.89648 162.62 7.83773 162.772 7.83204H173.287C173.361 7.83165 173.434 7.84679 173.501 7.87648C173.569 7.90618 173.629 7.94976 173.679 8.00438C173.728 8.05901 173.766 8.12345 173.788 8.19351C173.811 8.26358 173.819 8.3377 173.812 8.41104C173.793 8.56131 173.722 8.70001 173.61 8.80199C173.498 8.90396 173.353 8.96246 173.202 8.96688Z" fill="#263238"/>
<path d="M167.311 11.0663H162.502C162.427 11.0678 162.354 11.0535 162.285 11.0243C162.217 10.9951 162.155 10.9516 162.105 10.8969C162.055 10.8422 162.016 10.7773 161.993 10.7067C161.97 10.6361 161.961 10.5613 161.969 10.4873C161.984 10.3296 162.058 10.1832 162.174 10.0763C162.291 9.96932 162.444 9.9095 162.602 9.90833H167.404C167.478 9.90669 167.552 9.92099 167.62 9.95027C167.688 9.97955 167.749 10.0231 167.799 10.078C167.848 10.1329 167.886 10.1979 167.908 10.2685C167.931 10.3391 167.938 10.4137 167.929 10.4873C167.912 10.6418 167.841 10.7852 167.728 10.8915C167.614 10.9978 167.467 11.0598 167.311 11.0663Z" fill="#263238"/>
<path d="M190.431 74.2089C191.823 72.8762 191.962 70.7622 190.741 69.4871C189.521 68.2121 187.403 68.2587 186.01 69.5914C184.618 70.9241 184.479 73.038 185.7 74.3131C186.92 75.5882 189.039 75.5415 190.431 74.2089Z" fill="#263238"/>
<path d="M189.877 71.9077C189.832 72.3564 189.624 72.773 189.292 73.0788C188.961 73.3846 188.529 73.5585 188.078 73.5675C187.863 73.5768 187.648 73.5392 187.449 73.4574C187.249 73.3756 187.07 73.2516 186.923 73.0938C186.777 72.936 186.666 72.7482 186.599 72.5435C186.531 72.3387 186.51 72.1218 186.534 71.9077C186.579 71.4591 186.787 71.0425 187.119 70.7367C187.45 70.4309 187.882 70.257 188.333 70.248C188.548 70.2387 188.763 70.2763 188.962 70.3581C189.162 70.4399 189.341 70.5639 189.488 70.7217C189.635 70.8795 189.745 71.0673 189.813 71.272C189.88 71.4768 189.902 71.6937 189.877 71.9077Z" fill="#6730DE"/>
<path d="M195.243 57.7726H183.663C183.058 57.7845 182.478 58.0171 182.033 58.4267C181.588 58.8362 181.308 59.3944 181.246 59.996L181.061 62.1036C181.029 62.3873 181.058 62.6746 181.146 62.9462C181.234 63.2178 181.379 63.4675 181.571 63.6787C181.763 63.8899 181.998 64.0576 182.26 64.1707C182.523 64.2838 182.806 64.3397 183.091 64.3346H186.913L188.063 66.0716C188.141 66.1726 188.241 66.2543 188.355 66.3105C188.47 66.3668 188.595 66.396 188.723 66.396C188.85 66.396 188.976 66.3668 189.091 66.3105C189.205 66.2543 189.305 66.1726 189.383 66.0716L190.834 64.3346H194.656C195.263 64.3244 195.845 64.0915 196.292 63.6803C196.739 63.269 197.019 62.7079 197.08 62.1036L197.265 59.996C197.296 59.7135 197.266 59.4278 197.178 59.1576C197.09 58.8875 196.946 58.6391 196.754 58.429C196.563 58.2188 196.33 58.0516 196.069 57.9385C195.808 57.8253 195.527 57.7688 195.243 57.7726Z" fill="#263238"/>
<path d="M194.339 60.5672H183.817C183.743 60.5688 183.669 60.5545 183.601 60.5253C183.533 60.496 183.472 60.4524 183.422 60.3975C183.372 60.3426 183.335 60.2776 183.312 60.207C183.29 60.1364 183.283 60.0618 183.292 59.9882C183.307 59.8318 183.379 59.6864 183.494 59.5797C183.61 59.4729 183.76 59.4122 183.917 59.4092H194.424C194.498 59.4088 194.571 59.4239 194.638 59.4536C194.706 59.4833 194.766 59.5269 194.816 59.5815C194.865 59.6362 194.903 59.7006 194.926 59.7707C194.949 59.8407 194.957 59.9148 194.949 59.9882C194.936 60.1426 194.867 60.2869 194.754 60.3936C194.642 60.5003 194.494 60.5621 194.339 60.5672Z" fill="white"/>
<path d="M188.449 62.6439H183.616C183.542 62.6456 183.468 62.6313 183.4 62.602C183.332 62.5727 183.271 62.5292 183.221 62.4743C183.172 62.4194 183.134 62.3544 183.112 62.2838C183.089 62.2131 183.082 62.1385 183.091 62.0649C183.108 61.9092 183.18 61.7647 183.295 61.6583C183.41 61.5519 183.56 61.4906 183.716 61.4859H188.534C188.608 61.4845 188.682 61.4988 188.75 61.528C188.819 61.5572 188.88 61.6006 188.931 61.6554C188.981 61.7101 189.019 61.7749 189.043 61.8456C189.066 61.9162 189.074 61.9909 189.066 62.0649C189.051 62.22 188.98 62.3644 188.867 62.471C188.753 62.5775 188.605 62.639 188.449 62.6439Z" fill="white"/>
<path d="M217.399 30.2198C217.308 31.1247 216.889 31.9648 216.22 32.5809C215.551 33.197 214.68 33.5463 213.77 33.5626C213.342 33.5707 212.917 33.4874 212.524 33.3182C212.131 33.149 211.778 32.8978 211.489 32.5815C211.201 32.2651 210.983 31.8908 210.85 31.4835C210.718 31.0763 210.674 30.6455 210.721 30.2198C210.815 29.3171 211.236 28.4798 211.904 27.8656C212.572 27.2513 213.442 26.9025 214.349 26.8848C214.777 26.8768 215.201 26.96 215.594 27.1287C215.987 27.2974 216.339 27.5479 216.628 27.8634C216.916 28.1789 217.134 28.5522 217.267 28.9586C217.4 29.3649 217.445 29.7948 217.399 30.2198Z" fill="#263238"/>
<path d="M215.716 30.2198C215.671 30.6685 215.463 31.0851 215.131 31.3909C214.8 31.6967 214.368 31.8706 213.917 31.8796C213.702 31.8889 213.487 31.8513 213.288 31.7695C213.088 31.6877 212.909 31.5636 212.762 31.4058C212.616 31.2481 212.505 31.0603 212.438 30.8556C212.37 30.6508 212.348 30.4339 212.373 30.2198C212.42 29.7725 212.629 29.3578 212.96 29.0536C213.291 28.7493 213.722 28.5766 214.172 28.5677C214.386 28.5587 214.601 28.5961 214.799 28.6774C214.998 28.7588 215.177 28.8821 215.324 29.039C215.47 29.1959 215.581 29.3827 215.649 29.5865C215.717 29.7903 215.739 30.0063 215.716 30.2198Z" fill="#6730DE"/>
<path d="M221.081 16.0998H209.501C208.895 16.1098 208.314 16.3416 207.867 16.7513C207.42 17.161 207.139 17.7202 207.077 18.3231L206.892 20.4384C206.861 20.7215 206.891 21.0079 206.98 21.2786C207.068 21.5493 207.213 21.7981 207.405 22.0084C207.597 22.2187 207.832 22.3857 208.093 22.4983C208.355 22.611 208.637 22.6667 208.922 22.6618H212.782L213.932 24.3988C214.009 24.501 214.108 24.584 214.222 24.6412C214.335 24.6984 214.461 24.7281 214.589 24.7281C214.716 24.7281 214.842 24.6984 214.956 24.6412C215.07 24.584 215.169 24.501 215.245 24.3988L216.696 22.6618H220.518C221.124 22.6517 221.705 22.42 222.152 22.0102C222.598 21.6005 222.879 21.0413 222.942 20.4384L223.127 18.3231C223.158 18.0387 223.128 17.7509 223.038 17.4791C222.949 17.2073 222.802 16.9578 222.609 16.7472C222.415 16.5367 222.178 16.37 221.915 16.2583C221.651 16.1466 221.367 16.0926 221.081 16.0998Z" fill="#6730DE"/>
<path d="M220.178 18.8943H209.656C209.582 18.896 209.508 18.8817 209.44 18.8524C209.372 18.8231 209.311 18.7796 209.261 18.7246C209.211 18.6697 209.174 18.6048 209.151 18.5342C209.129 18.4635 209.122 18.3889 209.131 18.3153C209.146 18.1589 209.218 18.0136 209.333 17.9068C209.448 17.8001 209.599 17.7394 209.756 17.7363H220.278C220.352 17.7359 220.425 17.7511 220.493 17.7808C220.56 17.8105 220.621 17.8541 220.67 17.9087C220.72 17.9633 220.757 18.0277 220.78 18.0978C220.803 18.1679 220.811 18.242 220.803 18.3153C220.79 18.4724 220.718 18.6187 220.603 18.7258C220.487 18.8329 220.336 18.893 220.178 18.8943Z" fill="#263238"/>
<path d="M214.288 20.9945H209.47C209.397 20.9949 209.324 20.9798 209.256 20.9501C209.189 20.9204 209.128 20.8768 209.079 20.8222C209.029 20.7676 208.992 20.7031 208.969 20.6331C208.946 20.563 208.938 20.4889 208.945 20.4155C208.961 20.2578 209.034 20.1114 209.151 20.0045C209.268 19.8975 209.42 19.8377 209.578 19.8365H214.388C214.462 19.835 214.536 19.8494 214.605 19.8786C214.673 19.9078 214.734 19.9512 214.785 20.006C214.835 20.0607 214.873 20.1255 214.897 20.1961C214.92 20.2667 214.928 20.3415 214.921 20.4155C214.904 20.5726 214.83 20.7181 214.714 20.8247C214.597 20.9313 214.446 20.9917 214.288 20.9945Z" fill="#263238"/>
<path d="M139.797 72.2787C139.705 73.1821 139.285 74.0204 138.616 74.6349C137.948 75.2495 137.077 75.5977 136.169 75.6138C135.742 75.6206 135.319 75.5367 134.927 75.3674C134.535 75.1982 134.184 74.9476 133.896 74.6322C133.608 74.3168 133.391 73.9439 133.259 73.5381C133.126 73.1324 133.081 72.7031 133.127 72.2787C133.218 71.3739 133.637 70.5338 134.306 69.9177C134.975 69.3015 135.847 68.9522 136.756 68.936C137.183 68.929 137.607 69.0131 138 69.1828C138.392 69.3525 138.744 69.6038 139.032 69.92C139.32 70.2363 139.537 70.6102 139.669 71.0169C139.801 71.4236 139.845 71.8537 139.797 72.2787Z" fill="#263238"/>
<path d="M138.122 72.2785C138.075 72.7271 137.865 73.1429 137.532 73.4473C137.2 73.7517 136.767 73.9236 136.316 73.9306C136.102 73.9384 135.888 73.9001 135.69 73.8183C135.492 73.7365 135.314 73.6131 135.167 73.4565C135.021 73.2999 134.91 73.1137 134.842 72.9104C134.773 72.7072 134.75 72.4917 134.772 72.2785C134.819 71.8292 135.028 71.4125 135.361 71.1068C135.694 70.8011 136.127 70.6275 136.578 70.6187C136.793 70.6108 137.007 70.6492 137.206 70.7315C137.405 70.8137 137.584 70.9378 137.73 71.0953C137.877 71.2528 137.987 71.44 138.055 71.6441C138.123 71.8483 138.146 72.0647 138.122 72.2785Z" fill="#6730DE"/>
<path d="M143.472 58.1507H131.892C131.287 58.1624 130.706 58.3948 130.26 58.8042C129.813 59.2136 129.532 59.7718 129.468 60.3741L129.29 62.4894C129.258 62.7728 129.287 63.0597 129.375 63.3309C129.464 63.6022 129.609 63.8515 129.801 64.062C129.993 64.2726 130.228 64.4396 130.49 64.5519C130.753 64.6641 131.036 64.7189 131.321 64.7127H135.181L136.331 66.4497C136.407 66.552 136.506 66.635 136.62 66.6922C136.734 66.7494 136.86 66.7791 136.987 66.7791C137.115 66.7791 137.24 66.7494 137.354 66.6922C137.468 66.635 137.567 66.552 137.643 66.4497L139.103 64.7127H142.963C143.568 64.7011 144.149 64.4687 144.595 64.0593C145.041 63.6499 145.323 63.0917 145.387 62.4894L145.564 60.3741C145.597 60.0854 145.567 59.7929 145.475 59.5171C145.384 59.2414 145.233 58.9889 145.034 58.7772C144.835 58.5656 144.592 58.3999 144.322 58.2917C144.052 58.1835 143.762 58.1354 143.472 58.1507Z" fill="#263238"/>
<path d="M142.576 60.953H132.062C131.987 60.9545 131.914 60.9402 131.845 60.911C131.777 60.8818 131.715 60.8383 131.665 60.7836C131.615 60.7289 131.576 60.664 131.553 60.5934C131.53 60.5228 131.521 60.448 131.529 60.374C131.544 60.2163 131.618 60.0699 131.734 59.963C131.851 59.856 132.004 59.7962 132.162 59.795H142.7C142.774 59.7935 142.848 59.8079 142.917 59.8371C142.985 59.8663 143.046 59.9097 143.097 59.9645C143.147 60.0192 143.185 60.084 143.209 60.1546C143.232 60.2253 143.24 60.3 143.233 60.374C143.215 60.535 143.138 60.6838 143.017 60.7909C142.896 60.8981 142.738 60.9559 142.576 60.953Z" fill="white"/>
<path d="M136.694 63.0453H131.892C131.818 63.0457 131.745 63.0306 131.678 63.0009C131.61 62.9712 131.55 62.9276 131.5 62.873C131.451 62.8184 131.413 62.7539 131.39 62.6839C131.367 62.6138 131.359 62.5397 131.367 62.4663C131.38 62.3093 131.452 62.1629 131.568 62.0558C131.683 61.9488 131.835 61.8887 131.992 61.8873H136.81C136.884 61.8857 136.957 61.9 137.025 61.9293C137.093 61.9585 137.154 62.0021 137.204 62.057C137.254 62.1119 137.291 62.1769 137.314 62.2475C137.336 62.3181 137.343 62.3928 137.335 62.4663C137.319 62.6254 137.245 62.7729 137.126 62.88C137.008 62.9871 136.854 63.0461 136.694 63.0453Z" fill="white"/>
<path d="M83.5954 59.1468L81.3721 63.0068L79.1873 66.9671C77.7514 69.6151 76.3772 72.2785 75.1266 74.965C74.5013 76.3083 73.9068 77.6439 73.3664 78.9949L73.2661 79.2342C73.2688 79.2547 73.2688 79.2755 73.2661 79.296C73.2376 79.3283 73.2141 79.3647 73.1966 79.404C73.1556 79.4723 73.1219 79.5448 73.0962 79.6202C73.039 79.9112 73.0713 80.2126 73.1889 80.4848C73.6166 81.5379 74.2489 82.4957 75.0494 83.3026C75.994 84.3175 76.9995 85.274 78.0602 86.1668L76.2537 90.0268C75.403 89.7919 74.5698 89.4979 73.7601 89.1467C72.9461 88.7967 72.1569 88.3918 71.3978 87.9346C69.6647 86.9316 68.1793 85.5517 67.0515 83.8971C66.3414 82.8445 65.8649 81.652 65.6541 80.3999C65.5652 79.7028 65.5652 78.9972 65.6541 78.3001C65.6895 77.9541 65.7488 77.611 65.8317 77.2733L65.9552 76.7715L66.0556 76.4704C66.5497 74.8878 67.0669 73.3284 67.6691 71.8384C68.8335 68.8383 70.1476 65.8985 71.6063 63.0299C72.3242 61.6017 73.0731 60.189 73.8605 58.8071C74.6479 57.4252 75.4045 56.0588 76.3232 54.646L83.5954 59.1468Z" fill="#FFC3BD"/>
<path d="M76.0917 85.75L80.1524 84.6924L80.384 91.2467C80.384 91.2467 77.2111 91.7176 75.2656 89.7721L76.0917 85.75Z" fill="#FFC3BD"/>
<path d="M85.896 83.5889L84.9851 89.3403L80.3839 91.2471L80.1523 84.6928L85.896 83.5889Z" fill="#FFC3BD"/>
<path d="M102.679 28.2826C102.764 28.7303 103.08 29.0546 103.374 28.9851C103.667 28.9156 103.829 28.5142 103.737 28.0664C103.644 27.6186 103.335 27.2944 103.042 27.3639C102.749 27.4334 102.556 27.8348 102.679 28.2826Z" fill="#263238"/>
<path d="M103.035 29.0547C103.851 30.3148 104.835 31.4576 105.961 32.4515C105.699 32.7334 105.379 32.9548 105.023 33.1001C104.667 33.2455 104.283 33.3113 103.899 33.293L103.035 29.0547Z" fill="#ED847E"/>
<path d="M100.533 26.1283C100.465 26.1287 100.399 26.104 100.348 26.0589C100.298 26.0083 100.271 25.9404 100.271 25.8697C100.271 25.799 100.298 25.7311 100.348 25.6806C100.632 25.3549 100.992 25.1033 101.395 24.9473C101.799 24.7914 102.234 24.7357 102.664 24.7851C102.734 24.7973 102.797 24.8372 102.839 24.8958C102.88 24.9544 102.896 25.0271 102.884 25.0977C102.871 25.1684 102.832 25.2312 102.773 25.2725C102.714 25.3137 102.642 25.33 102.571 25.3177C102.235 25.2871 101.897 25.3369 101.584 25.4631C101.271 25.5893 100.993 25.7883 100.772 26.0434C100.742 26.0756 100.705 26.1 100.663 26.1148C100.621 26.1296 100.577 26.1342 100.533 26.1283Z" fill="#263238"/>
<path d="M89.9104 34.5898C90.6824 38.7355 91.5316 46.3397 88.6289 49.1112C88.6289 49.1112 89.7637 53.3186 97.476 53.3186C105.968 53.3186 101.521 49.1112 101.521 49.1112C96.8893 48.0072 97.0205 44.5718 97.8234 41.3448L89.9104 34.5898Z" fill="#FFC3BD"/>
<path d="M86.9538 49.8756C86.3362 48.7253 85.6569 47.4052 87.0696 46.996C88.6136 46.5406 98.5956 45.6991 101.529 46.5483C100.626 48.154 102.155 50.1226 102.155 50.1226L86.9538 49.8756Z" fill="#263238"/>
<path d="M61.8404 243.292C62.0692 243.374 62.312 243.409 62.5546 243.396C62.7971 243.382 63.0346 243.321 63.2532 243.215C63.3377 243.137 63.3958 243.035 63.4193 242.923C63.4429 242.811 63.4307 242.694 63.3844 242.59C63.3595 242.502 63.3154 242.421 63.2553 242.353C63.1951 242.285 63.1206 242.231 63.037 242.196C62.265 241.825 60.5126 242.543 60.4354 242.574C60.4123 242.586 60.3929 242.603 60.3793 242.625C60.3657 242.647 60.3583 242.672 60.3582 242.698C60.3544 242.723 60.3592 242.749 60.3718 242.771C60.3844 242.794 60.404 242.811 60.4277 242.821C60.8807 243.027 61.3542 243.185 61.8404 243.292ZM62.7668 242.381L62.9212 242.435C62.971 242.456 63.0155 242.487 63.0516 242.527C63.0876 242.567 63.1143 242.615 63.1297 242.667C63.1991 242.906 63.1297 242.983 63.0756 243.006C62.7745 243.269 61.6397 243.006 60.8445 242.705C61.4552 242.464 62.1112 242.358 62.7668 242.397V242.381Z" fill="#6730DE"/>
<path d="M60.4586 242.844H60.5281C61.1688 242.659 62.543 241.678 62.5584 241.038C62.5589 240.937 62.5247 240.839 62.4614 240.76C62.3982 240.681 62.3097 240.627 62.211 240.605C62.1138 240.573 62.0112 240.561 61.9092 240.569C61.8071 240.577 61.7077 240.605 61.6166 240.652C60.8446 241.038 60.3814 242.612 60.3582 242.674C60.3459 242.694 60.3394 242.717 60.3394 242.74C60.3394 242.763 60.3459 242.786 60.3582 242.805C60.3701 242.82 60.3857 242.831 60.4033 242.838C60.4209 242.845 60.4399 242.847 60.4586 242.844ZM62.0644 240.837H62.1261C62.2882 240.891 62.2882 240.976 62.2882 241.007C62.2882 241.385 61.3695 242.149 60.7442 242.466C60.9223 241.842 61.2825 241.286 61.7787 240.868C61.8686 240.829 61.9682 240.818 62.0644 240.837Z" fill="#6730DE"/>
<path d="M103.714 244.257C104.439 244.257 105.142 244.157 105.381 243.833C105.443 243.746 105.477 243.642 105.477 243.536C105.477 243.429 105.443 243.325 105.381 243.238C105.335 243.161 105.274 243.093 105.201 243.04C105.128 242.987 105.045 242.949 104.957 242.93C104.015 242.675 102.031 243.802 101.946 243.848C101.923 243.863 101.905 243.884 101.894 243.909C101.883 243.933 101.88 243.961 101.884 243.987C101.889 244.014 101.901 244.039 101.921 244.059C101.94 244.078 101.965 244.091 101.992 244.095C102.56 244.202 103.136 244.256 103.714 244.257ZM104.617 243.153C104.702 243.145 104.787 243.145 104.872 243.153C104.981 243.181 105.075 243.25 105.134 243.346C105.235 243.509 105.196 243.593 105.134 243.64C104.864 244.01 103.436 244.018 102.378 243.864C103.073 243.487 103.832 243.246 104.617 243.153Z" fill="#6730DE"/>
<path d="M102 244.103H102.054C102.741 243.794 104.1 242.559 103.992 241.926C103.992 241.779 103.86 241.594 103.49 241.555C103.352 241.534 103.211 241.544 103.078 241.584C102.944 241.624 102.821 241.693 102.718 241.787C101.992 242.373 101.845 243.902 101.838 243.971C101.834 243.994 101.838 244.017 101.847 244.037C101.857 244.058 101.872 244.075 101.892 244.087C101.925 244.105 101.963 244.11 102 244.103ZM103.382 241.787H103.467C103.706 241.787 103.721 241.91 103.729 241.941C103.791 242.327 102.864 243.292 102.185 243.709C102.255 243.059 102.525 242.447 102.957 241.957C103.078 241.86 103.227 241.805 103.382 241.802V241.787Z" fill="#6730DE"/>
<path d="M95.7622 243.964H101.436L102 230.832H96.3258L95.7622 243.964Z" fill="#FFC3BD"/>
<path d="M54.1357 241.339L59.6787 242.536L65.2448 230.307L59.7019 229.111L54.1357 241.339Z" fill="#FFC3BD"/>
<path d="M60.2117 241.98L53.9894 240.637C53.8788 240.609 53.7621 240.622 53.6602 240.673C53.5583 240.724 53.478 240.81 53.4335 240.915L51.2719 245.601C51.2194 245.715 51.1934 245.84 51.196 245.966C51.1985 246.092 51.2296 246.215 51.2868 246.327C51.344 246.44 51.4259 246.537 51.5262 246.613C51.6266 246.689 51.7429 246.742 51.8664 246.766C54.0511 247.199 55.1319 247.299 57.8725 247.893C59.5555 248.256 63.3615 249.183 65.6852 249.684C68.0089 250.186 68.8195 247.955 67.9085 247.538C63.8401 245.678 62.1417 244.041 61.0377 242.52C60.8388 242.244 60.5445 242.051 60.2117 241.98Z" fill="#263238"/>
<path d="M101.398 243.292H95.222C95.1094 243.292 95.0002 243.331 94.912 243.401C94.8238 243.471 94.7617 243.568 94.7357 243.678L93.6163 248.719C93.5882 248.841 93.5882 248.968 93.6164 249.09C93.6446 249.213 93.7003 249.327 93.7791 249.424C93.858 249.522 93.958 249.6 94.0715 249.653C94.1851 249.706 94.3093 249.732 94.4346 249.73C96.6657 249.692 99.8926 249.561 102.703 249.561C105.984 249.561 108.825 249.738 112.677 249.738C114.993 249.738 115.649 247.384 114.676 247.175C110.237 246.202 106.617 246.102 102.78 243.732C102.369 243.46 101.891 243.308 101.398 243.292Z" fill="#263238"/>
<path d="M78.477 50.3925C73.1579 51.6123 68.7729 65.1763 68.7729 65.1763L79.4497 73.3132C82.2149 70.3727 84.1654 66.7619 85.1085 62.8372C86.9381 55.6962 83.9119 49.1419 78.477 50.3925Z" fill="#6730DE"/>
<path opacity="0.2" d="M83.032 60.3667C80.1447 63.2231 79.172 68.4264 78.979 72.9503L79.4499 73.3131C82.2151 70.3685 84.1677 66.7558 85.1164 62.8294C85.2245 62.4048 85.3171 61.9802 85.3943 61.5633L83.032 60.3667Z" fill="black"/>
<path d="M110.276 50.6861C110.276 50.6861 114.63 54.9475 112.985 77.6057C112.553 83.5964 110.26 90.8764 109.071 99.7004H82.5687C82.3525 95.0684 82.9624 72.333 78.4771 50.3927C81.84 49.7458 85.2414 49.3177 88.6597 49.1112C92.9536 48.864 97.2582 48.864 101.552 49.1112C104.497 49.4079 107.413 49.9344 110.276 50.6861Z" fill="#263238"/>
<path opacity="0.6" d="M113.317 69.654C112.816 66.3653 112.283 63.478 111.773 61.0076L111.604 60.9072L103.297 64.3889C103.698 69.5536 109.156 74.7646 112.955 77.814C112.955 77.7445 112.955 77.6674 112.955 77.6056C113.171 74.6488 113.279 72.0163 113.317 69.654Z" fill="black"/>
<path opacity="0.2" d="M102 230.832L101.706 237.602H96.0322L96.3256 230.832H102Z" fill="black"/>
<path opacity="0.2" d="M59.7019 229.111L65.2449 230.307L62.373 236.615L56.8301 235.418L59.7019 229.111Z" fill="black"/>
<path d="M87.5327 30.3744C88.9918 35.7784 89.5631 39.0671 92.9367 41.3291C97.9856 44.7259 104.262 40.8273 104.463 35.0605C104.64 29.8726 102.224 21.8515 96.3953 20.763C95.1087 20.5108 93.779 20.5923 92.533 20.9999C91.2869 21.4075 90.1661 22.1276 89.2774 23.0914C88.3886 24.0552 87.7617 25.2307 87.4563 26.5056C87.1508 27.7806 87.1771 29.1125 87.5327 30.3744Z" fill="#FFC3BD"/>
<path d="M99.8229 99.7002C99.8229 99.7002 93.3844 143.048 89.8563 159.283C85.9963 177.039 65.2373 235.896 65.2373 235.896L55.0854 233.696C55.0854 233.696 69.5913 185.755 72.8414 160.897C74.2851 149.818 74.4935 131.005 76.354 117.155C77.2332 110.979 79.3467 105.042 82.5686 99.7002H99.8229Z" fill="#263238"/>
<path d="M67.6691 232.484L65.7777 236.151L54.3521 233.681L55.3171 230.245L67.6691 232.484Z" fill="#6730DE"/>
<path opacity="0.6" d="M95.7546 115.14C88.3125 116.599 89.0999 144.352 89.9954 158.627C92.1416 148.537 95.2836 129.121 97.4298 115.341C96.9106 115.085 96.3195 115.014 95.7546 115.14Z" fill="black"/>
<path d="M109.04 99.7002C109.04 99.7002 111.356 142.106 110.747 159.399C110.106 177.394 103.799 236.29 103.799 236.29H94.218C94.218 236.29 93.8629 178.444 93.446 160.773C92.9751 141.512 90.6514 99.7002 90.6514 99.7002H109.04Z" fill="#263238"/>
<path d="M105.644 232.484C105.683 232.484 105.096 236.467 105.096 236.467H93.4387L93.1299 232.908L105.644 232.484Z" fill="#6730DE"/>
<path d="M113.047 55.8584C113.92 57.2171 114.908 58.738 115.904 60.1507C116.9 61.5635 117.926 62.9917 118.992 64.3581C121.009 67.0657 123.259 69.592 125.716 71.9083C126.31 72.4564 126.92 72.9659 127.538 73.4523L128.001 73.7997C127.916 73.7548 127.825 73.7235 127.731 73.707C127.53 73.6684 127.43 73.707 127.484 73.707C127.939 73.7404 128.394 73.6524 128.804 73.4523C129.478 73.1624 130.131 72.8244 130.757 72.441C133.632 70.5452 136.358 68.4314 138.909 66.1183L142.221 68.7971C140.212 72.1679 137.712 75.22 134.802 77.8527C133.977 78.581 133.088 79.2346 132.147 79.8058C130.958 80.5457 129.632 81.0368 128.248 81.2495C126.701 81.4705 125.126 81.1369 123.801 80.3076L123.13 79.883C122.25 79.3118 121.408 78.7096 120.605 78.0766C117.549 75.5935 114.762 72.7964 112.291 69.7312C111.079 68.2335 109.913 66.7204 108.824 65.1533C107.736 63.5861 106.686 62.0653 105.667 60.2742L113.047 55.8584Z" fill="#FFC3BD"/>
<path d="M101.908 59.2627C100.093 66.8669 113.85 74.309 113.85 74.309L122.782 63.8407C120.101 59.8824 117.045 56.1907 113.657 52.8165C107.404 46.8181 103.282 53.4727 101.908 59.2627Z" fill="#6730DE"/>
<path d="M137.999 67.6698L140.106 60.8994L145.657 63.6632C145.657 63.6632 144.846 68.604 140.809 69.4609L137.999 67.6698Z" fill="#FFC3BD"/>
<path d="M142.329 59.0234L147.34 60.3976L145.657 63.6632L140.106 60.8994L142.329 59.0234Z" fill="#FFC3BD"/>
<path d="M93.2916 38.3878C94.7327 38.0664 96.0513 37.3385 97.0912 36.2904C98.1312 35.2422 98.8487 33.9179 99.1588 32.4743C99.1588 32.4743 97.9236 29.2165 100.24 27.0008C102.556 24.7852 101.413 22.3688 99.097 21.9134C96.781 21.4579 93.2298 24.2294 93.2298 24.2294L90.4043 29.2937L91.5546 34.4043L93.2916 38.3878Z" fill="#263238"/>
<path opacity="0.3" d="M93.2916 38.3878C94.7327 38.0664 96.0513 37.3385 97.0912 36.2904C98.1312 35.2422 98.8487 33.9179 99.1588 32.4743C99.1588 32.4743 97.9236 29.2165 100.24 27.0008C102.556 24.7852 101.413 22.3688 99.097 21.9134C96.781 21.4579 93.2298 24.2294 93.2298 24.2294L90.4043 29.2937L91.5546 34.4043L93.2916 38.3878Z" fill="white"/>
<path d="M96.7812 30.5981C97.157 31.953 97.9715 33.1449 99.0972 33.9872C100.572 35.0835 101.676 33.9872 101.568 32.3351C101.475 30.7911 100.595 28.4751 98.966 27.9965C97.3371 27.5179 96.3798 28.9692 96.7812 30.5981Z" fill="#FFC3BD"/>
<path d="M94.0637 36.8749C92.6818 33.5784 90.1343 25.0478 99.1358 21.9135C99.1358 21.9135 98.4796 13.684 102.857 17.0345C102.857 17.0345 98.6726 11.6922 98.0936 17.158C98.0936 17.158 97.0668 15.2975 98.6108 14.07C98.6108 14.07 90.3736 11.3062 90.5666 17.544C90.3394 16.9024 90.2734 16.2148 90.3744 15.5417C90.4754 14.8687 90.7402 14.2307 91.1456 13.684C91.1456 13.684 89.3545 13.5759 88.6443 16.4014C87.934 19.227 80.9397 18.6402 81.5805 25.071C81.5805 25.071 75.4045 32.8373 90.2346 39.4688C90.2346 39.4688 88.2814 40.6731 89.3931 42.5954C89.5953 41.9211 89.934 41.2955 90.3882 40.7577C90.8424 40.2198 91.4024 39.7811 92.0334 39.4688C92.0334 39.4688 91.0684 41.669 93.1296 42.3175C92.924 41.7489 92.8722 41.1361 92.9793 40.541C93.0863 39.9459 93.3486 39.3897 93.7395 38.9284C93.9839 38.6527 94.1443 38.3129 94.2017 37.949C94.2592 37.5851 94.2113 37.2124 94.0637 36.8749Z" fill="#263238"/>
<path opacity="0.1" d="M99.3677 40.2562C97.4068 40.3488 97.5226 42.2634 97.5535 42.5722C99.2533 42.4067 100.845 41.6627 102.062 40.4646C101.352 40.5882 100.595 40.2022 99.3677 40.2562Z" fill="black"/>
<path d="M98.3716 21.0871C98.3716 21.0871 99.3829 17.3583 101.29 18.0994C103.197 18.8405 101.846 21.8591 102.834 23.2718C102.376 23.0768 101.977 22.7655 101.676 22.3687C101.375 21.972 101.184 21.5035 101.12 21.0099C100.842 19.2497 99.1127 21.9131 99.1127 21.9131L98.3716 21.0871Z" fill="#263238"/>
<path d="M99.1205 36.0181L100.958 33.9106L100.255 33.293H97.9779L97.2754 33.9106L99.1205 36.0181Z" fill="#6730DE"/>
<path opacity="0.2" d="M98.8657 33.293H97.9779L97.2754 33.9106L99.1205 36.0181L98.1632 33.9106L98.8657 33.293Z" fill="white"/>
</g>
<defs>
<clipPath id="clip0_3028_5843">
<rect width="324" height="262" fill="white"/>
</clipPath>
</defs>
</svg>
