<svg width="299" height="273" viewBox="0 0 299 273" fill="none" xmlns="http://www.w3.org/2000/svg">
<g clip-path="url(#clip0_3041_2339)">
<path d="M340 238.624H-40V238.814H340V238.624Z" fill="#EBEBEB"/>
<path d="M15.9892 245.859H-0.130371V246.049H15.9892V245.859Z" fill="#EBEBEB"/>
<path d="M154.644 243.8H90.0664V243.99H154.644V243.8Z" fill="#EBEBEB"/>
<path d="M40.3928 252.92H11.4292V253.11H40.3928V252.92Z" fill="#EBEBEB"/>
<path d="M301.924 251.643H269.1V251.833H301.924V251.643Z" fill="#EBEBEB"/>
<path d="M266.614 251.643H257.517V251.833H266.614V251.643Z" fill="#EBEBEB"/>
<path d="M241.876 248.436H224.396V248.626H241.876V248.436Z" fill="#EBEBEB"/>
<path d="M215.611 248.436H178.796V248.626H215.611V248.436Z" fill="#EBEBEB"/>
<path d="M140.12 204.728H-6.62845C-7.77806 204.726 -8.87991 204.268 -9.6921 203.454C-10.5043 202.64 -10.9605 201.538 -10.9604 200.388V-5.8986C-10.9504 -7.04162 -10.4899 -8.13453 -9.67875 -8.93995C-8.86764 -9.74537 -7.77151 -10.1982 -6.62845 -10.2002H140.12C141.271 -10.2002 142.375 -9.74299 143.189 -8.92916C144.002 -8.11532 144.46 -7.01153 144.46 -5.8606V200.388C144.46 201.539 144.002 202.643 143.189 203.457C142.375 204.271 141.271 204.728 140.12 204.728ZM-6.62845 -10.0482C-7.72767 -10.0462 -8.78119 -9.60811 -9.55775 -8.83012C-10.3343 -8.05214 -10.7705 -6.99782 -10.7704 -5.8986V200.388C-10.7705 201.487 -10.3343 202.542 -9.55775 203.32C-8.78119 204.098 -7.72767 204.536 -6.62845 204.538H140.12C141.22 204.536 142.274 204.098 143.052 203.32C143.83 202.542 144.268 201.488 144.27 200.388V-5.8986C144.268 -6.99852 143.83 -8.05282 143.052 -8.83059C142.274 -9.60835 141.22 -10.0462 140.12 -10.0482H-6.62845Z" fill="#EBEBEB"/>
<path d="M304.516 204.728H157.76C156.609 204.726 155.507 204.268 154.693 203.455C153.88 202.641 153.422 201.539 153.42 200.388V-5.8986C153.432 -7.04231 153.894 -8.13522 154.707 -8.94042C155.519 -9.74563 156.616 -10.1983 157.76 -10.2002H304.516C305.657 -10.1962 306.751 -9.74249 307.561 -8.93728C308.37 -8.13208 308.83 -7.0403 308.84 -5.8986V200.388C308.84 201.536 308.385 202.638 307.574 203.451C306.764 204.265 305.664 204.724 304.516 204.728ZM157.76 -10.0482C156.66 -10.0462 155.605 -9.60835 154.828 -8.83059C154.05 -8.05282 153.612 -6.99852 153.61 -5.8986V200.388C153.612 201.488 154.05 202.542 154.828 203.32C155.605 204.098 156.66 204.536 157.76 204.538H304.516C305.615 204.536 306.67 204.098 307.448 203.32C308.225 202.542 308.663 201.488 308.665 200.388V-5.8986C308.663 -6.99852 308.225 -8.05282 307.448 -8.83059C306.67 -9.60835 305.615 -10.0462 304.516 -10.0482H157.76Z" fill="#EBEBEB"/>
<g opacity="0.6">
<path d="M227.755 111.803L233.387 106.171C238.128 110.917 241.173 117.094 242.048 123.745C242.924 130.397 241.582 137.151 238.231 142.963C234.879 148.774 229.705 153.319 223.509 155.892C217.314 158.465 210.442 158.924 203.96 157.197L206.019 149.506C210.812 150.794 215.896 150.464 220.482 148.566C225.068 146.669 228.899 143.311 231.381 139.013C233.863 134.716 234.856 129.719 234.208 124.799C233.559 119.879 231.304 115.31 227.793 111.803H227.755Z" fill="#EBEBEB"/>
<path d="M190.28 106.171C196.004 100.457 203.761 97.248 211.849 97.248C219.936 97.248 227.694 100.457 233.417 106.171L227.786 111.803C223.559 107.577 217.826 105.203 211.849 105.203C205.871 105.203 200.139 107.577 195.911 111.803L190.28 106.171Z" fill="#F5F5F5"/>
<path d="M190.28 106.171L195.911 111.803C193.818 113.895 192.157 116.38 191.024 119.114C189.891 121.849 189.308 124.78 189.308 127.74C189.308 130.7 189.891 133.631 191.024 136.365C192.157 139.1 193.818 141.584 195.911 143.677C198.701 146.482 202.187 148.494 206.012 149.506L203.96 157.197C198.789 155.811 194.075 153.088 190.289 149.303C186.504 145.517 183.782 140.802 182.396 135.632C181.009 130.461 181.008 125.017 182.392 119.845C183.776 114.674 186.496 109.958 190.28 106.171Z" fill="#E0E0E0"/>
<path d="M252.798 83.6217V95.5689C242.715 95.5699 232.914 92.2437 224.915 86.1062C216.916 79.9688 211.165 71.3632 208.556 61.6243C205.947 51.8854 206.624 41.5576 210.483 32.2429C214.342 22.9282 221.167 15.1472 229.899 10.1069L235.88 20.4581C229.422 24.1803 224.374 29.9301 221.519 36.8151C218.664 43.7 218.162 51.335 220.09 58.5347C222.018 65.7344 226.269 72.0962 232.184 76.6324C238.098 81.1686 245.344 83.6255 252.798 83.6217Z" fill="#EBEBEB"/>
<path d="M298.595 49.7715C298.591 61.9165 293.765 73.563 285.177 82.1508C276.589 90.7387 264.943 95.5651 252.798 95.5691V83.6219C261.775 83.6199 270.383 80.0529 276.731 73.7051C283.079 67.3574 286.646 58.7486 286.648 49.7715H298.595Z" fill="#F5F5F5"/>
<path d="M298.595 49.7713H286.648C286.649 43.8297 285.086 37.9925 282.116 32.8466C279.146 27.7007 274.873 23.4275 269.727 20.4565C264.582 17.4855 258.745 15.9216 252.803 15.9218C246.862 15.9221 241.025 17.4866 235.88 20.4581L229.906 10.1069C236.868 6.08912 244.765 3.97451 252.804 3.97559C260.842 3.97666 268.738 6.09337 275.699 10.113C282.66 14.1327 288.441 19.9137 292.46 26.8751C296.479 33.8365 298.595 41.7331 298.595 49.7713Z" fill="#E0E0E0"/>
</g>
<g opacity="0.5">
<path d="M173.507 238.616H193.814V195.714H173.507V238.616Z" fill="#F5F5F5"/>
<path d="M149.058 238.624H169.365V208.665H149.058V238.624Z" fill="#E6E6E6"/>
<path d="M124.609 238.616H144.916V219.685H124.609V238.616Z" fill="#F0F0F0"/>
<path d="M249.69 238.624H269.997V208.665H249.69V238.624Z" fill="#F5F5F5"/>
<path d="M225.248 238.624H245.555V215.292H225.248V238.624Z" fill="#E6E6E6"/>
<path d="M200.791 238.624H221.098V188.365H200.791V238.624Z" fill="#F0F0F0"/>
<path d="M97.3246 238.624H117.632V191.732H97.3246V238.624Z" fill="#F5F5F5"/>
<path d="M72.8754 238.624H93.1826V208.665H72.8754V238.624Z" fill="#E6E6E6"/>
<path d="M48.4262 238.624H68.7334V199.195H48.4262V238.624Z" fill="#F0F0F0"/>
</g>
<g opacity="0.6">
<path d="M2.64355 8.38947C2.64955 7.01866 3.19676 5.70571 4.16608 4.73639C5.1354 3.76707 6.44835 3.21987 7.81915 3.21387H169.137C170.509 3.21787 171.824 3.76419 172.795 4.73372C173.766 5.70325 174.314 7.01735 174.32 8.38947V25.0639H2.64355V8.38947Z" fill="#F0F0F0"/>
<path d="M44.5115 18.4367C43.6614 18.4367 42.8303 18.1848 42.1233 17.7128C41.4162 17.2408 40.8649 16.5699 40.5389 15.7847C40.2128 14.9996 40.1268 14.1355 40.2915 13.3015C40.4563 12.4675 40.8644 11.701 41.4645 11.0988C42.0646 10.4966 42.8296 10.0857 43.6631 9.91801C44.4965 9.75032 45.3609 9.83334 46.1472 10.1566C46.9335 10.4798 47.6063 11.0288 48.0808 11.7342C48.5553 12.4396 48.8101 13.2698 48.8131 14.1199C48.8141 14.6858 48.7037 15.2463 48.488 15.7695C48.2724 16.2927 47.9558 16.7683 47.5564 17.1692C47.1569 17.57 46.6825 17.8883 46.16 18.1058C45.6376 18.3233 45.0774 18.4357 44.5115 18.4367ZM44.5115 10.6011C43.8101 10.6011 43.1245 10.8094 42.5416 11.1996C41.9587 11.5898 41.5048 12.1442 41.2374 12.7927C40.97 13.4412 40.9012 14.1544 41.0397 14.8421C41.1783 15.5297 41.5178 16.1607 42.0154 16.6551C42.513 17.1494 43.1462 17.4849 43.8347 17.619C44.5232 17.7531 45.236 17.6797 45.8827 17.4081C46.5294 17.1366 47.081 16.6791 47.4674 16.0937C47.8538 15.5083 48.0577 14.8213 48.0531 14.1199C48.0471 13.1846 47.6713 12.2896 47.0078 11.6303C46.3443 10.9711 45.4469 10.6011 44.5115 10.6011Z" fill="white"/>
<path d="M30.6797 18.4369C29.8277 18.446 28.9922 18.2018 28.2792 17.7353C27.5661 17.2688 27.0077 16.6011 26.6747 15.8168C26.3417 15.0325 26.2491 14.167 26.4086 13.33C26.5682 12.493 26.9727 11.7223 27.5709 11.1155C28.1691 10.5088 28.9341 10.0934 29.7687 9.92194C30.6033 9.75052 31.4701 9.83083 32.259 10.1527C33.048 10.4745 33.7235 11.0235 34.2001 11.7298C34.6766 12.4361 34.9326 13.2681 34.9357 14.1201C34.9398 15.2558 34.4946 16.3469 33.6973 17.1556C32.9 17.9643 31.8153 18.4249 30.6797 18.4369ZM30.6797 10.6013C29.9764 10.5923 29.2863 10.7929 28.6974 11.1775C28.1086 11.5621 27.6476 12.1134 27.3732 12.761C27.0988 13.4087 27.0234 14.1233 27.1568 14.8139C27.2901 15.5045 27.626 16.1398 28.1217 16.6388C28.6175 17.1378 29.2506 17.4778 29.9403 17.6156C30.63 17.7534 31.3452 17.6827 31.9946 17.4126C32.644 17.1424 33.1982 16.685 33.5867 16.0986C33.9751 15.5122 34.1802 14.8235 34.1757 14.1201C34.1718 13.1921 33.8029 12.3028 33.1487 11.6444C32.4946 10.986 31.6077 10.6113 30.6797 10.6013Z" fill="white"/>
<path d="M16.7643 18.4367C15.9138 18.4382 15.082 18.1876 14.3739 17.7165C13.6659 17.2454 13.1133 16.575 12.7862 15.79C12.459 15.005 12.3718 14.1406 12.5357 13.3061C12.6996 12.4716 13.1072 11.7044 13.7069 11.1015C14.3067 10.4985 15.0717 10.0869 15.9054 9.91858C16.739 9.75027 17.6038 9.83285 18.3905 10.1559C19.1773 10.4789 19.8506 11.0279 20.3254 11.7334C20.8002 12.439 21.0552 13.2694 21.0582 14.1199C21.0603 15.2615 20.6092 16.3572 19.8042 17.1665C18.9991 17.9758 17.9058 18.4327 16.7643 18.4367ZM16.7643 10.6011C16.0625 10.5996 15.3761 10.8066 14.7922 11.1959C14.2083 11.5851 13.7532 12.1391 13.4847 12.7874C13.2162 13.4358 13.1463 14.1493 13.2839 14.8374C13.4216 15.5255 13.7606 16.1572 14.2578 16.6524C14.7551 17.1475 15.3883 17.4838 16.077 17.6184C16.7657 17.7531 17.4789 17.6802 18.1261 17.4088C18.7733 17.1375 19.3252 16.68 19.712 16.0945C20.0987 15.5089 20.3028 14.8216 20.2982 14.1199C20.2922 13.1859 19.9175 12.292 19.2556 11.633C18.5937 10.974 17.6983 10.6031 16.7643 10.6011Z" fill="white"/>
<path d="M169.137 137.331H7.81915C6.44835 137.325 5.1354 136.778 4.16608 135.809C3.19676 134.839 2.64955 133.526 2.64355 132.156V25.064H174.32V132.156C174.314 133.528 173.766 134.842 172.795 135.811C171.824 136.781 170.509 137.327 169.137 137.331Z" fill="#E0E0E0"/>
<path d="M28.8408 48.5479C28.8428 47.1752 29.3885 45.8592 30.3585 44.8878C31.3284 43.9164 32.6437 43.3688 34.0164 43.3647H195.334C196.706 43.3708 198.02 43.919 198.99 44.89C199.959 45.8609 200.506 47.1758 200.51 48.5479V65.2147H28.8408V48.5479Z" fill="#F5F5F5"/>
<path d="M70.7091 58.5876C69.8577 58.5891 69.025 58.3379 68.3164 57.8658C67.6078 57.3937 67.0553 56.722 66.7288 55.9356C66.4023 55.1493 66.3165 54.2838 66.4822 53.4486C66.6479 52.6135 67.0578 51.8463 67.6598 51.2443C68.2619 50.6422 69.029 50.2324 69.8642 50.0667C70.6993 49.9009 71.5648 49.9867 72.3512 50.3133C73.1375 50.6398 73.8092 51.1923 74.2813 51.9009C74.7534 52.6094 75.0046 53.4421 75.0031 54.2936C75.0011 55.4318 74.548 56.5228 73.7432 57.3277C72.9383 58.1325 71.8473 58.5856 70.7091 58.5876ZM70.7091 50.752C70.0083 50.7505 69.3228 50.9569 68.7394 51.3451C68.156 51.7334 67.7009 52.286 67.4317 52.933C67.1625 53.58 67.0912 54.2923 67.227 54.9798C67.3628 55.6673 67.6995 56.2991 68.1945 56.7952C68.6895 57.2912 69.3206 57.6293 70.0078 57.7666C70.695 57.9038 71.4075 57.8341 72.0551 57.5663C72.7026 57.2985 73.2562 56.8445 73.6457 56.262C74.0352 55.6794 74.2431 54.9944 74.2431 54.2936C74.2431 53.3556 73.871 52.4559 73.2085 51.792C72.5459 51.128 71.6471 50.754 70.7091 50.752Z" fill="#E6E6E6"/>
<path d="M56.8317 58.5876C55.9802 58.5891 55.1475 58.3379 54.439 57.8658C53.7304 57.3937 53.1779 56.722 52.8514 55.9356C52.5248 55.1493 52.439 54.2838 52.6047 53.4486C52.7705 52.6135 53.1803 51.8463 53.7824 51.2443C54.3844 50.6422 55.1516 50.2324 55.9867 50.0667C56.8219 49.9009 57.6874 49.9867 58.4737 50.3133C59.2601 50.6398 59.9318 51.1923 60.4039 51.9009C60.876 52.6094 61.1272 53.4421 61.1257 54.2936C61.1236 55.4318 60.6706 56.5228 59.8658 57.3277C59.0609 58.1325 57.9699 58.5856 56.8317 58.5876ZM56.8317 50.752C56.1309 50.7505 55.4454 50.9569 54.862 51.3451C54.2786 51.7334 53.8235 52.286 53.5542 52.933C53.285 53.58 53.2138 54.2923 53.3496 54.9798C53.4854 55.6673 53.8221 56.2991 54.3171 56.7952C54.8121 57.2912 55.4431 57.6293 56.1303 57.7666C56.8175 57.9038 57.53 57.8341 58.1776 57.5663C58.8252 57.2985 59.3788 56.8445 59.7683 56.262C60.1577 55.6794 60.3657 54.9944 60.3657 54.2936C60.3657 53.3556 59.9936 52.4559 59.331 51.792C58.6685 51.128 57.7696 50.754 56.8317 50.752Z" fill="#E6E6E6"/>
<path d="M42.9615 58.5876C42.1101 58.5891 41.2774 58.3379 40.5688 57.8658C39.8603 57.3937 39.3078 56.722 38.9812 55.9356C38.6547 55.1493 38.5689 54.2838 38.7346 53.4486C38.9004 52.6135 39.3102 51.8463 39.9123 51.2443C40.5143 50.6422 41.2815 50.2324 42.1166 50.0667C42.9517 49.9009 43.8173 49.9867 44.6036 50.3133C45.3899 50.6398 46.0617 51.1923 46.5338 51.9009C47.0058 52.6094 47.257 53.4421 47.2555 54.2936C47.2515 55.4312 46.7978 56.5211 45.9934 57.3255C45.189 58.1299 44.0991 58.5836 42.9615 58.5876ZM42.9615 50.752C42.2608 50.7505 41.5753 50.9569 40.9919 51.3451C40.4085 51.7334 39.9533 52.286 39.6841 52.933C39.4149 53.58 39.3437 54.2923 39.4795 54.9798C39.6153 55.6673 39.952 56.2991 40.447 56.7952C40.942 57.2912 41.573 57.6293 42.2602 57.7666C42.9474 57.9038 43.6599 57.8341 44.3075 57.5663C44.9551 57.2985 45.5086 56.8445 45.8981 56.262C46.2876 55.6794 46.4955 54.9944 46.4955 54.2936C46.4955 53.3556 46.1235 52.4559 45.4609 51.792C44.7984 51.128 43.8995 50.754 42.9615 50.752Z" fill="#E6E6E6"/>
<path d="M195.334 177.52H34.0164C32.6444 177.518 31.3291 176.972 30.3589 176.002C29.3888 175.032 28.8428 173.716 28.8408 172.344V65.2148H200.51V172.306C200.513 172.989 200.381 173.665 200.123 174.296C199.864 174.928 199.483 175.502 199.003 175.986C198.522 176.471 197.951 176.855 197.321 177.118C196.692 177.382 196.016 177.518 195.334 177.52Z" fill="#E6E6E6"/>
</g>
<path d="M150 272.946C231.383 272.946 297.356 269.094 297.356 264.342C297.356 259.591 231.383 255.739 150 255.739C68.6173 255.739 2.64355 259.591 2.64355 264.342C2.64355 269.094 68.6173 272.946 150 272.946Z" fill="#F5F5F5"/>
<path d="M162.555 72.1533C162.81 72.1558 163.063 72.1059 163.298 72.0066C163.533 71.9074 163.745 71.761 163.921 71.5764C164.097 71.3919 164.233 71.1731 164.321 70.9337C164.409 70.6944 164.447 70.4395 164.432 70.1849L163.87 58.9597C163.839 58.4299 163.609 57.9315 163.225 57.5648C162.842 57.1981 162.333 56.9905 161.803 56.9837H160.283L158.907 29.0537C158.729 26.0738 157.433 23.2711 155.277 21.2065C153.12 19.142 150.264 17.968 147.279 17.9197H59.8108C58.3744 17.91 56.9512 18.1951 55.6293 18.7573C54.3074 19.3195 53.1149 20.1469 52.1255 21.1883C51.136 22.2297 50.3708 23.463 49.8769 24.812C49.3831 26.1609 49.1713 27.5968 49.2544 29.0309L50.6376 57.0901C50.2402 57.2347 49.8999 57.5036 49.6672 57.8567C49.4345 58.2099 49.3218 58.6286 49.3456 59.0509L50.6756 85.9777C50.7059 86.4184 50.8666 86.8402 51.1373 87.1894C51.4079 87.5385 51.7764 87.7993 52.1956 87.9385L58.04 206.764C58.2238 209.745 59.5273 212.547 61.6893 214.607C63.8513 216.668 66.7121 217.835 69.6984 217.876H157.159C158.596 217.885 160.019 217.6 161.341 217.038C162.663 216.476 163.855 215.648 164.845 214.607C165.834 213.566 166.599 212.332 167.093 210.983C167.587 209.634 167.799 208.199 167.716 206.764L162.054 92.2325H163.574C163.829 92.235 164.081 92.1851 164.316 92.0858C164.551 91.9866 164.763 91.8402 164.939 91.6556C165.115 91.4711 165.252 91.2523 165.34 91.0129C165.428 90.7736 165.465 90.5187 165.451 90.2641L164.896 79.0161C164.862 78.4883 164.63 77.9927 164.247 77.628C163.864 77.2633 163.358 77.0561 162.829 77.0477H161.309L161.066 72.1533H162.555Z" fill="#6730DE"/>
<path d="M71.5452 217.876H159.006C160.443 217.885 161.866 217.6 163.189 217.038C164.511 216.476 165.704 215.649 166.694 214.607C167.684 213.566 168.45 212.333 168.945 210.984C169.439 209.635 169.652 208.199 169.57 206.764L160.784 29.0385C160.604 26.0568 159.303 23.2536 157.142 21.1913C154.981 19.129 152.12 17.9603 149.134 17.9197H61.6652C60.2284 17.91 58.8049 18.1951 57.4826 18.7572C56.1603 19.3194 54.9673 20.1466 53.9773 21.1879C52.9873 22.2292 52.2213 23.4624 51.7266 24.8114C51.2319 26.1603 51.0191 27.5964 51.1012 29.0309L59.8868 206.757C60.0687 209.739 61.3713 212.542 63.5335 214.605C65.6957 216.667 68.5576 217.835 71.5452 217.876Z" fill="#6730DE"/>
<path opacity="0.4" d="M71.5452 217.876H159.006C160.443 217.885 161.866 217.6 163.189 217.038C164.511 216.476 165.704 215.649 166.694 214.607C167.684 213.566 168.45 212.333 168.945 210.984C169.439 209.635 169.652 208.199 169.57 206.764L160.784 29.0385C160.604 26.0568 159.303 23.2536 157.142 21.1913C154.981 19.129 152.12 17.9603 149.134 17.9197H61.6652C60.2284 17.91 58.8049 18.1951 57.4826 18.7572C56.1603 19.3194 54.9673 20.1466 53.9773 21.1879C52.9873 22.2292 52.2213 23.4624 51.7266 24.8114C51.2319 26.1603 51.0191 27.5964 51.1012 29.0309L59.8868 206.757C60.0687 209.739 61.3713 212.542 63.5335 214.605C65.6957 216.667 68.5576 217.835 71.5452 217.876Z" fill="#FAFAFA"/>
<path d="M64.363 202.379H164.683C164.907 202.382 165.129 202.338 165.335 202.251C165.541 202.165 165.727 202.036 165.882 201.875C166.037 201.713 166.156 201.521 166.234 201.311C166.311 201.101 166.345 200.878 166.332 200.654L158.139 35.529C158.111 35.0652 157.907 34.6294 157.57 34.3094C157.233 33.9893 156.788 33.8087 156.323 33.8038H56.003C55.7796 33.8013 55.558 33.8449 55.3522 33.9318C55.1463 34.0187 54.9606 34.1471 54.8066 34.309C54.6525 34.4708 54.5335 34.6627 54.4569 34.8726C54.3803 35.0825 54.3478 35.306 54.3614 35.529L62.5162 200.654C62.5453 201.123 62.7529 201.563 63.0964 201.884C63.4398 202.205 63.893 202.382 64.363 202.379Z" fill="white"/>
<path opacity="0.7" d="M116.195 23.065H95.1051C94.9282 23.0636 94.7529 23.0986 94.5901 23.1678C94.4272 23.237 94.2804 23.3388 94.1585 23.4671C94.0367 23.5953 93.9425 23.7472 93.8817 23.9134C93.821 24.0795 93.7951 24.2564 93.8055 24.433C93.8266 24.8014 93.9865 25.1482 94.253 25.4034C94.5195 25.6586 94.8729 25.8034 95.2419 25.8086H116.332C116.509 25.81 116.685 25.7748 116.849 25.7052C117.012 25.6355 117.159 25.533 117.281 25.4039C117.403 25.2748 117.497 25.122 117.558 24.9549C117.618 24.7879 117.643 24.6102 117.631 24.433C117.609 24.0659 117.448 23.721 117.181 23.4674C116.915 23.2137 116.563 23.07 116.195 23.065Z" fill="#6730DE"/>
<path opacity="0.6" d="M193.335 168.012H105.647L99.3613 40.8188H187.05L193.335 168.012Z" fill="#6730DE"/>
<path d="M182.984 133.235C182.944 133.242 182.903 133.242 182.862 133.235C182.824 133.221 182.79 133.198 182.764 133.167C182.734 133.139 182.711 133.105 182.695 133.068C182.688 133.028 182.688 132.986 182.695 132.946C182.695 132.862 182.729 132.78 182.789 132.72C182.849 132.661 182.93 132.627 183.014 132.627C183.099 132.627 183.18 132.661 183.24 132.72C183.3 132.78 183.334 132.862 183.334 132.946C183.341 132.986 183.341 133.028 183.334 133.068C183.318 133.105 183.295 133.139 183.265 133.167C183.239 133.198 183.205 133.221 183.166 133.235C183.107 133.253 183.043 133.253 182.984 133.235Z" fill="white"/>
<path d="M183.858 157C183.856 156.959 183.862 156.918 183.876 156.879C183.89 156.841 183.911 156.805 183.939 156.775C183.966 156.745 183.999 156.72 184.036 156.703C184.073 156.685 184.114 156.675 184.155 156.673C184.238 156.669 184.32 156.698 184.382 156.753C184.445 156.808 184.483 156.886 184.489 156.969C184.491 157.011 184.485 157.053 184.471 157.093C184.456 157.132 184.435 157.169 184.406 157.2C184.378 157.231 184.344 157.256 184.306 157.274C184.268 157.292 184.227 157.302 184.185 157.304C184.102 157.306 184.021 157.275 183.96 157.218C183.898 157.162 183.862 157.083 183.858 157ZM183.737 154.598C183.734 154.556 183.741 154.514 183.755 154.475C183.769 154.435 183.791 154.399 183.819 154.368C183.847 154.337 183.881 154.312 183.919 154.294C183.957 154.276 183.999 154.266 184.041 154.264C184.082 154.262 184.124 154.268 184.163 154.282C184.202 154.297 184.238 154.319 184.268 154.347C184.298 154.375 184.323 154.409 184.34 154.447C184.357 154.485 184.366 154.526 184.367 154.568C184.369 154.609 184.363 154.65 184.349 154.688C184.336 154.727 184.314 154.762 184.287 154.793C184.259 154.823 184.226 154.848 184.189 154.865C184.152 154.883 184.112 154.893 184.071 154.895C183.987 154.899 183.906 154.87 183.843 154.815C183.781 154.759 183.742 154.682 183.737 154.598ZM183.622 152.189C183.62 152.148 183.627 152.107 183.64 152.069C183.654 152.03 183.675 151.995 183.703 151.964C183.73 151.934 183.764 151.909 183.801 151.892C183.838 151.874 183.878 151.864 183.919 151.862C183.96 151.859 184.001 151.864 184.04 151.878C184.08 151.891 184.115 151.913 184.146 151.94C184.177 151.968 184.201 152.002 184.218 152.039C184.235 152.077 184.245 152.117 184.246 152.159C184.249 152.2 184.244 152.242 184.23 152.281C184.217 152.321 184.196 152.357 184.168 152.389C184.141 152.42 184.107 152.445 184.069 152.463C184.032 152.481 183.991 152.491 183.949 152.493C183.866 152.495 183.785 152.465 183.724 152.408C183.663 152.351 183.626 152.272 183.622 152.189ZM183.501 149.78C183.499 149.698 183.528 149.618 183.584 149.557C183.639 149.496 183.715 149.459 183.797 149.453C183.881 149.449 183.962 149.478 184.025 149.533C184.088 149.588 184.126 149.666 184.132 149.749C184.136 149.833 184.107 149.915 184.052 149.977C183.996 150.04 183.919 150.078 183.835 150.084C183.793 150.086 183.751 150.08 183.712 150.066C183.672 150.051 183.636 150.029 183.605 150.001C183.574 149.973 183.549 149.939 183.531 149.901C183.513 149.863 183.503 149.822 183.501 149.78ZM183.379 147.378C183.377 147.336 183.384 147.294 183.398 147.255C183.412 147.215 183.434 147.179 183.462 147.148C183.49 147.117 183.524 147.092 183.562 147.074C183.6 147.056 183.641 147.046 183.683 147.044C183.725 147.042 183.766 147.048 183.805 147.062C183.845 147.077 183.88 147.099 183.911 147.127C183.941 147.155 183.966 147.189 183.983 147.227C184 147.265 184.009 147.306 184.01 147.348C184.012 147.389 184.006 147.43 183.992 147.468C183.979 147.507 183.957 147.542 183.93 147.573C183.902 147.603 183.869 147.628 183.832 147.645C183.795 147.663 183.755 147.673 183.714 147.675C183.63 147.679 183.548 147.65 183.486 147.595C183.423 147.539 183.385 147.462 183.379 147.378ZM183.265 144.969C183.263 144.928 183.269 144.887 183.283 144.849C183.297 144.81 183.318 144.775 183.346 144.744C183.373 144.714 183.406 144.689 183.444 144.672C183.481 144.654 183.521 144.644 183.562 144.642C183.603 144.639 183.645 144.644 183.684 144.658C183.724 144.671 183.76 144.692 183.792 144.72C183.823 144.747 183.848 144.781 183.866 144.819C183.884 144.856 183.894 144.897 183.896 144.939C183.898 145.023 183.868 145.105 183.811 145.167C183.755 145.229 183.676 145.267 183.592 145.273C183.509 145.275 183.428 145.245 183.367 145.188C183.306 145.131 183.269 145.052 183.265 144.969ZM183.144 142.56C183.142 142.476 183.172 142.396 183.229 142.335C183.286 142.273 183.364 142.237 183.448 142.233C183.489 142.231 183.53 142.237 183.568 142.251C183.607 142.265 183.642 142.286 183.673 142.313C183.703 142.341 183.728 142.374 183.745 142.411C183.763 142.448 183.773 142.489 183.775 142.529C183.779 142.613 183.75 142.695 183.695 142.757C183.639 142.82 183.561 142.858 183.478 142.864C183.436 142.866 183.394 142.86 183.355 142.846C183.315 142.831 183.279 142.809 183.248 142.781C183.217 142.753 183.192 142.719 183.174 142.681C183.156 142.643 183.146 142.602 183.144 142.56ZM183.03 140.158C183.027 140.117 183.032 140.075 183.045 140.036C183.059 139.996 183.08 139.96 183.107 139.928C183.135 139.897 183.168 139.872 183.206 139.854C183.244 139.836 183.284 139.826 183.326 139.824C183.368 139.822 183.409 139.828 183.448 139.842C183.487 139.857 183.523 139.879 183.554 139.907C183.584 139.935 183.609 139.969 183.626 140.007C183.643 140.045 183.652 140.086 183.653 140.128C183.655 140.169 183.649 140.21 183.635 140.248C183.621 140.287 183.6 140.322 183.572 140.353C183.545 140.383 183.512 140.408 183.475 140.425C183.438 140.443 183.397 140.453 183.357 140.455C183.316 140.457 183.275 140.451 183.236 140.437C183.197 140.423 183.162 140.402 183.132 140.374C183.101 140.347 183.077 140.313 183.059 140.276C183.042 140.239 183.032 140.199 183.03 140.158ZM182.908 137.749C182.906 137.708 182.912 137.667 182.926 137.629C182.94 137.59 182.961 137.555 182.989 137.524C183.016 137.494 183.049 137.469 183.086 137.452C183.123 137.434 183.164 137.424 183.205 137.422C183.288 137.418 183.37 137.447 183.432 137.502C183.495 137.558 183.533 137.635 183.539 137.719C183.541 137.803 183.511 137.885 183.454 137.947C183.397 138.009 183.319 138.047 183.235 138.053C183.152 138.055 183.071 138.025 183.01 137.968C182.948 137.911 182.912 137.832 182.908 137.749ZM182.787 135.347C182.784 135.306 182.791 135.264 182.805 135.224C182.819 135.185 182.841 135.148 182.869 135.117C182.897 135.086 182.931 135.061 182.969 135.043C183.007 135.025 183.049 135.015 183.091 135.013C183.131 135.011 183.172 135.017 183.211 135.031C183.25 135.045 183.285 135.066 183.315 135.093C183.346 135.121 183.37 135.154 183.388 135.191C183.405 135.228 183.415 135.269 183.417 135.309C183.421 135.393 183.393 135.475 183.337 135.537C183.282 135.6 183.204 135.638 183.121 135.644C183.037 135.648 182.956 135.619 182.893 135.564C182.831 135.509 182.792 135.431 182.787 135.347Z" fill="white"/>
<path d="M184.291 159.713C184.25 159.713 184.208 159.704 184.17 159.687C184.132 159.67 184.099 159.645 184.071 159.614C184.041 159.586 184.017 159.552 184.001 159.514C183.986 159.476 183.978 159.435 183.98 159.394C183.972 159.354 183.972 159.312 183.98 159.272C183.993 159.234 184.017 159.2 184.048 159.173C184.076 159.144 184.109 159.121 184.147 159.105C184.225 159.074 184.312 159.074 184.39 159.105C184.43 159.12 184.466 159.144 184.496 159.173C184.523 159.202 184.543 159.236 184.557 159.272C184.567 159.312 184.567 159.354 184.557 159.394C184.556 159.476 184.523 159.555 184.466 159.614C184.435 159.644 184.399 159.667 184.36 159.683C184.339 159.696 184.316 159.707 184.291 159.713Z" fill="white"/>
<path d="M181.426 159.394C181.426 159.352 181.434 159.311 181.45 159.273C181.467 159.234 181.49 159.2 181.52 159.171C181.55 159.142 181.585 159.119 181.624 159.104C181.662 159.088 181.704 159.081 181.745 159.082C181.786 159.082 181.827 159.09 181.864 159.106C181.902 159.122 181.937 159.144 181.966 159.173C181.994 159.202 182.017 159.237 182.033 159.274C182.049 159.312 182.057 159.353 182.057 159.394C182.057 159.477 182.024 159.557 181.966 159.617C181.908 159.676 181.829 159.711 181.745 159.713C181.661 159.713 181.579 159.679 181.52 159.619C181.46 159.56 181.426 159.478 181.426 159.394ZM178.872 159.394C178.872 159.352 178.881 159.311 178.897 159.273C178.913 159.234 178.937 159.2 178.966 159.171C178.996 159.142 179.031 159.119 179.07 159.104C179.109 159.088 179.15 159.081 179.192 159.082C179.233 159.082 179.273 159.09 179.311 159.106C179.349 159.122 179.383 159.144 179.412 159.173C179.441 159.202 179.464 159.237 179.479 159.274C179.495 159.312 179.503 159.353 179.503 159.394C179.504 159.435 179.497 159.477 179.482 159.515C179.467 159.554 179.444 159.589 179.415 159.619C179.386 159.649 179.351 159.672 179.313 159.689C179.274 159.705 179.233 159.713 179.192 159.713C179.108 159.711 179.029 159.676 178.971 159.617C178.913 159.557 178.88 159.477 178.88 159.394H178.872ZM176.326 159.394C176.326 159.353 176.334 159.312 176.35 159.274C176.366 159.237 176.389 159.202 176.418 159.173C176.447 159.144 176.481 159.122 176.519 159.106C176.557 159.09 176.597 159.082 176.638 159.082C176.68 159.081 176.721 159.088 176.76 159.104C176.798 159.119 176.834 159.142 176.863 159.171C176.893 159.2 176.917 159.234 176.933 159.273C176.949 159.311 176.957 159.352 176.957 159.394C176.957 159.478 176.924 159.56 176.864 159.619C176.804 159.679 176.723 159.713 176.638 159.713C176.596 159.713 176.555 159.705 176.517 159.689C176.479 159.672 176.444 159.649 176.415 159.619C176.386 159.589 176.363 159.554 176.348 159.515C176.333 159.477 176.325 159.435 176.326 159.394ZM173.773 159.394C173.773 159.352 173.781 159.311 173.797 159.273C173.813 159.234 173.837 159.2 173.867 159.171C173.896 159.142 173.932 159.119 173.97 159.104C174.009 159.088 174.05 159.081 174.092 159.082C174.133 159.082 174.173 159.09 174.211 159.106C174.249 159.122 174.283 159.144 174.312 159.173C174.341 159.202 174.364 159.237 174.38 159.274C174.396 159.312 174.404 159.353 174.404 159.394C174.405 159.435 174.397 159.477 174.382 159.515C174.367 159.554 174.344 159.589 174.315 159.619C174.286 159.649 174.251 159.672 174.213 159.689C174.175 159.705 174.134 159.713 174.092 159.713C174.007 159.713 173.926 159.679 173.866 159.619C173.806 159.56 173.773 159.478 173.773 159.394ZM171.227 159.394C171.227 159.353 171.235 159.312 171.251 159.274C171.266 159.237 171.289 159.202 171.318 159.173C171.347 159.144 171.381 159.122 171.419 159.106C171.457 159.09 171.497 159.082 171.538 159.082C171.58 159.081 171.621 159.088 171.66 159.104C171.699 159.119 171.734 159.142 171.764 159.171C171.793 159.2 171.817 159.234 171.833 159.273C171.849 159.311 171.858 159.352 171.858 159.394C171.858 159.478 171.824 159.56 171.764 159.619C171.704 159.679 171.623 159.713 171.538 159.713C171.497 159.713 171.456 159.705 171.417 159.689C171.379 159.672 171.344 159.649 171.315 159.619C171.286 159.589 171.264 159.554 171.248 159.515C171.233 159.477 171.226 159.435 171.227 159.394ZM168.673 159.394C168.673 159.352 168.682 159.311 168.698 159.273C168.714 159.234 168.737 159.2 168.767 159.171C168.797 159.142 168.832 159.119 168.871 159.104C168.91 159.088 168.951 159.081 168.992 159.082C169.033 159.082 169.074 159.09 169.112 159.106C169.149 159.122 169.184 159.144 169.213 159.173C169.242 159.202 169.265 159.237 169.28 159.274C169.296 159.312 169.304 159.353 169.304 159.394C169.305 159.435 169.298 159.477 169.282 159.515C169.267 159.554 169.245 159.589 169.215 159.619C169.186 159.649 169.152 159.672 169.113 159.689C169.075 159.705 169.034 159.713 168.992 159.713C168.908 159.713 168.827 159.679 168.767 159.619C168.707 159.56 168.673 159.478 168.673 159.394ZM166.12 159.394C166.12 159.352 166.128 159.311 166.144 159.273C166.16 159.234 166.184 159.2 166.214 159.171C166.243 159.142 166.279 159.119 166.317 159.104C166.356 159.088 166.397 159.081 166.439 159.082C166.48 159.082 166.52 159.09 166.558 159.106C166.596 159.122 166.63 159.144 166.659 159.173C166.688 159.202 166.711 159.237 166.727 159.274C166.742 159.312 166.75 159.353 166.75 159.394C166.751 159.435 166.744 159.477 166.729 159.515C166.714 159.554 166.691 159.589 166.662 159.619C166.633 159.649 166.598 159.672 166.56 159.689C166.522 159.705 166.48 159.713 166.439 159.713C166.354 159.713 166.273 159.679 166.213 159.619C166.153 159.56 166.12 159.478 166.12 159.394ZM163.574 159.394C163.574 159.353 163.582 159.312 163.597 159.274C163.613 159.237 163.636 159.202 163.665 159.173C163.694 159.144 163.728 159.122 163.766 159.106C163.804 159.09 163.844 159.082 163.885 159.082C163.927 159.081 163.968 159.088 164.007 159.104C164.045 159.119 164.081 159.142 164.11 159.171C164.14 159.2 164.164 159.234 164.18 159.273C164.196 159.311 164.204 159.352 164.204 159.394C164.204 159.478 164.171 159.56 164.111 159.619C164.051 159.679 163.97 159.713 163.885 159.713C163.802 159.711 163.723 159.676 163.664 159.617C163.606 159.557 163.574 159.477 163.574 159.394ZM161.02 159.394C161.02 159.352 161.028 159.311 161.044 159.273C161.061 159.234 161.084 159.2 161.114 159.171C161.144 159.142 161.179 159.119 161.218 159.104C161.256 159.088 161.298 159.081 161.339 159.082C161.38 159.082 161.421 159.09 161.458 159.106C161.496 159.122 161.531 159.144 161.56 159.173C161.588 159.202 161.611 159.237 161.627 159.274C161.643 159.312 161.651 159.353 161.651 159.394C161.652 159.435 161.644 159.477 161.629 159.515C161.614 159.554 161.591 159.589 161.562 159.619C161.533 159.649 161.499 159.672 161.46 159.689C161.422 159.705 161.381 159.713 161.339 159.713C161.255 159.713 161.173 159.679 161.113 159.619C161.054 159.56 161.02 159.478 161.02 159.394ZM158.474 159.394C158.474 159.353 158.482 159.312 158.498 159.274C158.513 159.237 158.536 159.202 158.565 159.173C158.594 159.144 158.629 159.122 158.666 159.106C158.704 159.09 158.745 159.082 158.786 159.082C158.827 159.081 158.868 159.088 158.907 159.104C158.946 159.119 158.981 159.142 159.011 159.171C159.041 159.2 159.064 159.234 159.08 159.273C159.097 159.311 159.105 159.352 159.105 159.394C159.105 159.478 159.071 159.56 159.011 159.619C158.951 159.679 158.87 159.713 158.786 159.713C158.744 159.713 158.703 159.705 158.665 159.689C158.626 159.672 158.592 159.649 158.563 159.619C158.533 159.589 158.511 159.554 158.495 159.515C158.48 159.477 158.473 159.435 158.474 159.394ZM155.92 159.394C155.92 159.352 155.929 159.311 155.945 159.273C155.961 159.234 155.985 159.2 156.014 159.171C156.044 159.142 156.079 159.119 156.118 159.104C156.157 159.088 156.198 159.081 156.24 159.082C156.281 159.082 156.321 159.09 156.359 159.106C156.397 159.122 156.431 159.144 156.46 159.173C156.489 159.202 156.512 159.237 156.527 159.274C156.543 159.312 156.551 159.353 156.551 159.394C156.552 159.435 156.545 159.477 156.53 159.515C156.514 159.554 156.492 159.589 156.463 159.619C156.434 159.649 156.399 159.672 156.361 159.689C156.322 159.705 156.281 159.713 156.24 159.713C156.155 159.713 156.074 159.679 156.014 159.619C155.954 159.56 155.92 159.478 155.92 159.394Z" fill="white"/>
<path d="M153.686 159.713C153.644 159.712 153.604 159.703 153.566 159.686C153.528 159.669 153.494 159.645 153.465 159.615C153.434 159.588 153.411 159.554 153.397 159.516C153.39 159.475 153.39 159.434 153.397 159.394C153.396 159.353 153.403 159.312 153.419 159.274C153.435 159.236 153.458 159.202 153.488 159.174C153.531 159.128 153.587 159.096 153.648 159.084C153.71 159.072 153.773 159.079 153.83 159.105C153.869 159.119 153.903 159.142 153.929 159.174C153.96 159.201 153.985 159.235 154.002 159.273C154.019 159.311 154.028 159.352 154.028 159.394C154.035 159.434 154.035 159.475 154.028 159.516C153.994 159.59 153.935 159.649 153.861 159.683C153.806 159.709 153.746 159.72 153.686 159.713Z" fill="white"/>
<path opacity="0.5" d="M188.722 74.7148H101.033L99.3613 40.8188H187.05L188.722 74.7148Z" fill="#6730DE"/>
<path d="M184.595 129.032L184.39 126.813C189.898 126.602 195.107 124.255 198.914 120.269C201.154 117.921 202.815 115.082 203.763 111.978L205.891 112.738C204.851 116.15 203.029 119.273 200.571 121.858C196.381 126.235 190.651 128.809 184.595 129.032Z" fill="#263238"/>
<g style="mix-blend-mode:multiply" opacity="0.5">
<path d="M197.348 88.5998C194.631 85.9985 191.337 84.0789 187.734 82.9986L188.273 80.8706C192.233 82.0606 195.856 84.17 198.845 87.0266C202.291 90.2416 204.776 94.3518 206.02 98.8977C207.264 103.444 207.219 108.246 205.89 112.768L203.762 112.008C204.97 107.895 205.009 103.528 203.876 99.3937C202.744 95.2598 200.483 91.5225 197.348 88.5998Z" fill="#6730DE"/>
</g>
<path d="M165.717 121.842C160.969 117.36 158.092 111.249 157.661 104.734H159.88C160.313 110.874 163.108 116.607 167.678 120.729C172.249 124.852 178.238 127.043 184.39 126.843L184.595 129.062C181.124 129.192 177.663 128.62 174.419 127.379C171.175 126.139 168.215 124.255 165.717 121.842Z" fill="#6730DE"/>
<path opacity="0.7" d="M157.661 104.734C157.432 101.499 157.878 98.2512 158.969 95.1966C160.06 92.142 161.773 89.3471 163.999 86.9884C167.078 83.8148 170.978 81.5587 175.264 80.4717C179.55 79.3848 184.054 79.5096 188.274 80.8324L187.734 82.9604C183.892 81.7592 179.791 81.6504 175.891 82.6463C171.991 83.6422 168.444 85.7035 165.648 88.5996C163.627 90.7404 162.071 93.2765 161.079 96.0481C160.086 98.8197 159.678 101.767 159.88 104.704L157.661 104.734Z" fill="white"/>
<path opacity="0.6" d="M196.063 117.848C203.133 110.601 202.692 98.7058 195.078 91.2787C187.465 83.8516 175.562 83.7055 168.492 90.9525C161.423 98.1994 161.864 110.095 169.477 117.522C177.091 124.949 188.994 125.095 196.063 117.848Z" fill="white"/>
<path d="M136.442 141.177L136.069 142.697C132.239 141.565 128.122 141.926 124.548 143.707C122.473 144.743 120.669 146.25 119.281 148.108L117.989 147.12C119.512 145.077 121.493 143.419 123.772 142.279C127.705 140.324 132.231 139.93 136.442 141.177Z" fill="#263238"/>
<g style="mix-blend-mode:multiply" opacity="0.5">
<path d="M118.285 165.193C119.564 167.569 121.387 169.608 123.605 171.144L122.739 172.436C120.299 170.745 118.291 168.503 116.879 165.892C115.255 162.983 114.495 159.671 114.691 156.345C114.886 153.02 116.028 149.819 117.981 147.12L119.273 148.108C117.494 150.564 116.455 153.478 116.28 156.506C116.105 159.534 116.801 162.548 118.285 165.193Z" fill="#6730DE"/>
</g>
<path opacity="0.7" d="M147.781 150.327C150.012 154.371 150.585 159.124 149.377 163.582L147.857 163.095C148.958 159.036 148.437 154.709 146.405 151.026C145.326 149.017 143.858 147.243 142.086 145.808C140.314 144.373 138.274 143.305 136.084 142.666L136.457 141.146C138.86 141.847 141.1 143.019 143.044 144.596C144.988 146.172 146.599 148.121 147.781 150.327Z" fill="white"/>
<path d="M149.377 163.582C148.769 165.809 147.698 167.883 146.234 169.668C144.77 171.453 142.945 172.909 140.88 173.94C137.996 175.342 134.788 175.941 131.593 175.674C128.398 175.406 125.334 174.282 122.724 172.42L123.59 171.128C125.965 172.821 128.753 173.841 131.659 174.082C134.566 174.323 137.484 173.775 140.105 172.496C141.984 171.559 143.644 170.236 144.977 168.613C146.311 166.991 147.287 165.105 147.842 163.08L149.377 163.582Z" fill="#6730DE"/>
<path opacity="0.6" d="M142.205 167.722C147.267 162.533 146.952 154.017 141.502 148.7C136.051 143.383 127.53 143.279 122.468 148.468C117.406 153.657 117.721 162.173 123.171 167.49C128.621 172.807 137.143 172.911 142.205 167.722Z" fill="white"/>
<path d="M155.32 45.0898H152.31L144.748 56.3682L153.427 67.6466H156.437L147.758 56.3682L155.32 45.0898Z" fill="white"/>
<path d="M164.326 45.0898H167.335L176.022 56.3682L168.452 67.6466H165.435L173.005 56.3682L164.326 45.0898Z" fill="white"/>
<g opacity="0.6">
<path d="M87.5277 55.2964H68.3073C68.1218 55.295 67.9379 55.3318 67.7672 55.4045C67.5965 55.4772 67.4425 55.5842 67.3149 55.719C67.1873 55.8537 67.0888 56.0132 67.0255 56.1876C66.9622 56.3621 66.9355 56.5476 66.9469 56.7328L67.6005 69.9492C67.6219 70.3377 67.7915 70.7032 68.0742 70.9704C68.357 71.2376 68.7315 71.3862 69.1205 71.3856H88.3409C88.5265 71.387 88.7103 71.3502 88.881 71.2776C89.0518 71.2049 89.2057 71.0978 89.3333 70.9631C89.4609 70.8284 89.5594 70.6688 89.6227 70.4944C89.686 70.32 89.7128 70.1344 89.7013 69.9492L89.0477 56.7328C89.0263 56.3444 88.8568 55.9789 88.574 55.7117C88.2912 55.4445 87.9168 55.2958 87.5277 55.2964ZM80.2697 67.5932H76.7889L77.0321 63.3904C76.6971 63.1814 76.4172 62.8948 76.2161 62.5548C76.0151 62.2149 75.8987 61.8316 75.8769 61.4372C75.8592 61.1348 75.9038 60.832 76.008 60.5476C76.1121 60.2631 76.2736 60.0031 76.4824 59.7836C76.6912 59.5641 76.9428 59.3899 77.2217 59.2717C77.5006 59.1535 77.8008 59.0938 78.1037 59.0964C78.7333 59.1031 79.3369 59.3484 79.7926 59.7829C80.2482 60.2174 80.522 60.8087 80.5585 61.4372C80.5846 61.8182 80.5098 62.1993 80.3416 62.5422C80.1735 62.8851 79.918 63.1777 79.6009 63.3904L80.2697 67.5932Z" fill="#6730DE"/>
<path opacity="0.2" d="M75.877 61.4374C75.8988 61.8318 76.0151 62.2151 76.2162 62.555C76.4172 62.895 76.6971 63.1816 77.0322 63.3906L76.789 67.5934H78.5598L78.7422 71.3934H69.1054C68.7163 71.394 68.3419 71.2454 68.0591 70.9782C67.7763 70.711 67.6068 70.3455 67.5854 69.957L66.9318 56.7406C66.9203 56.5554 66.9471 56.3699 67.0104 56.1954C67.0737 56.021 67.1722 55.8615 67.2998 55.7268C67.4274 55.592 67.5813 55.485 67.7521 55.4123C67.9228 55.3396 68.1066 55.3028 68.2922 55.3042H77.9062L78.0886 59.1042C77.7876 59.1038 77.4898 59.1647 77.2132 59.2834C76.9366 59.4021 76.6872 59.576 76.4801 59.7944C76.2731 60.0128 76.1128 60.2712 76.0091 60.5537C75.9054 60.8362 75.8604 61.1369 75.877 61.4374Z" fill="black"/>
<path d="M85.7644 54.3468C85.4231 54.3435 85.0958 54.2106 84.8488 53.9749C84.6018 53.7392 84.4537 53.4185 84.4344 53.0776L84.366 51.7856C84.2892 50.0323 83.5724 48.3679 82.3511 47.1074C81.1298 45.8469 79.4889 45.0778 77.7388 44.9456C76.8554 44.8902 75.9703 45.0231 75.1422 45.3356C74.314 45.648 73.5617 46.1329 72.9351 46.7581C72.3085 47.3832 71.8219 48.1344 71.5075 48.9619C71.1932 49.7893 71.0582 50.6741 71.1116 51.5576L71.1876 53.0776C71.1971 53.2423 71.1725 53.4071 71.1154 53.5618C71.0583 53.7165 70.97 53.8578 70.8559 53.9769C70.7418 54.096 70.6044 54.1903 70.4523 54.2539C70.3001 54.3176 70.1365 54.3492 69.9716 54.3468C69.6303 54.3435 69.303 54.2106 69.056 53.9749C68.809 53.7392 68.6609 53.4185 68.6416 53.0776L68.5808 51.8161C68.4974 50.6474 68.6491 49.4738 69.0267 48.3647C69.4044 47.2556 70.0005 46.2334 70.7798 45.3585C71.559 44.4836 72.5057 43.7737 73.5639 43.2707C74.6221 42.7678 75.7703 42.4819 76.9408 42.43C79.467 42.3644 81.9199 43.2829 83.7818 44.9916C85.6436 46.7003 86.7687 49.0655 86.9196 51.588L86.988 53.108C86.9943 53.2711 86.9671 53.4338 86.908 53.5859C86.849 53.738 86.7593 53.8764 86.6446 53.9925C86.5299 54.1087 86.3927 54.2 86.2413 54.261C86.0899 54.3219 85.9276 54.3511 85.7644 54.3468Z" fill="#6730DE"/>
</g>
<path opacity="0.4" d="M94.1552 195.957H31.3868L25.9756 86.3882H88.744L94.1552 195.957Z" fill="#6730DE"/>
<path opacity="0.3" d="M89.0024 91.6398H26.234L25.9756 86.3882H88.744L89.0024 91.6398Z" fill="#6730DE"/>
<path opacity="0.3" d="M94.1552 195.958H31.3868L31.1284 190.706H93.8968L94.1552 195.958Z" fill="#6730DE"/>
<path d="M45.462 117.396L43.182 116.226C42.8398 115.245 42.402 114.301 41.8748 113.406L42.4904 111.027L37.558 106.331L35.2172 107.091C34.297 106.609 33.3324 106.217 32.3368 105.92L31.0676 103.731H24.448L23.384 105.92C22.4265 106.214 21.502 106.607 20.6252 107.091L18.216 106.331L13.7472 111.027L14.5908 113.406C14.1545 114.309 13.8107 115.254 13.5648 116.226L11.4292 117.396L11.756 124.039L14.036 125.201C14.3832 126.18 14.8209 127.124 15.3432 128.021L14.72 130.4L19.6524 135.097L21.9932 134.337C22.9107 134.819 23.8728 135.211 24.866 135.507L26.12 137.734H32.7624L33.8188 135.537C34.7768 135.245 35.7014 134.853 36.5776 134.367L38.9944 135.127L43.4556 130.43L42.612 128.051C43.0528 127.151 43.3967 126.205 43.638 125.232L45.7812 124.069L45.462 117.396ZM29.198 132.756C25.9592 132.723 22.8537 131.462 20.509 129.227C18.1643 126.992 16.7553 123.951 16.5668 120.717C16.4718 119.161 16.6982 117.603 17.2318 116.138C17.7655 114.673 18.5951 113.334 19.6688 112.204C20.7425 111.074 22.0375 110.177 23.4729 109.57C24.9084 108.962 26.4536 108.656 28.0124 108.671C31.2532 108.704 34.3607 109.967 36.7068 112.203C39.0529 114.439 40.4627 117.482 40.6512 120.717C40.7452 122.273 40.5178 123.832 39.9832 125.296C39.4485 126.761 38.6181 128.099 37.5437 129.228C36.4692 130.358 35.1738 131.254 33.7379 131.861C32.3021 132.468 30.7567 132.772 29.198 132.756Z" fill="#6730DE"/>
<path opacity="0.6" d="M28.0959 110.359C26.7556 110.346 25.4269 110.609 24.1927 111.132C22.9585 111.655 21.8451 112.426 20.9219 113.398C19.9986 114.369 19.2853 115.521 18.8263 116.78C18.3673 118.039 18.1725 119.38 18.2539 120.718C18.4196 123.505 19.6384 126.124 21.6634 128.046C23.6883 129.968 26.3681 131.049 29.1599 131.069C30.5024 131.086 31.834 130.826 33.0716 130.306C34.3093 129.785 35.4264 129.015 36.3534 128.044C37.2804 127.073 37.9974 125.921 38.4596 124.661C38.9218 123.4 39.1193 122.058 39.0399 120.718C38.8738 117.923 37.6499 115.297 35.6171 113.373C33.5842 111.449 30.8949 110.371 28.0959 110.359Z" fill="white"/>
<path d="M94.8084 127.663H59.172C58.8206 127.662 58.4725 127.732 58.1492 127.87C57.8259 128.008 57.5343 128.21 57.2922 128.465C57.0502 128.72 56.8629 129.022 56.7417 129.352C56.6206 129.682 56.5683 130.033 56.588 130.384L57.4924 148.677C57.5348 149.408 57.8536 150.096 58.3842 150.602C58.9147 151.107 59.6175 151.391 60.35 151.398H81.7668L82.162 159.325L89.7012 151.398H95.9864C96.3382 151.401 96.6868 151.331 97.0106 151.193C97.3344 151.056 97.6265 150.853 97.8688 150.598C98.111 150.343 98.2983 150.041 98.419 149.71C98.5397 149.38 98.5913 149.028 98.5704 148.677L97.666 130.399C97.6256 129.666 97.3079 128.975 96.7773 128.467C96.2468 127.959 95.5429 127.672 94.8084 127.663Z" fill="#6730DE"/>
<path d="M46.6932 158.109H71.0132C71.5136 158.116 71.993 158.312 72.3552 158.657C72.7174 159.002 72.9358 159.472 72.9664 159.971L73.582 172.466C73.5966 172.706 73.5617 172.946 73.4795 173.171C73.3973 173.397 73.2695 173.603 73.104 173.777C72.9386 173.951 72.7391 174.089 72.518 174.182C72.2969 174.276 72.0589 174.323 71.8188 174.32H57.204L57.47 179.739L51.7852 174.32H47.4912C46.9923 174.315 46.5138 174.121 46.1526 173.777C45.7914 173.433 45.5745 172.964 45.5456 172.466L44.93 159.971C44.9143 159.731 44.9484 159.49 45.0301 159.264C45.1118 159.037 45.2395 158.83 45.405 158.655C45.5706 158.481 45.7704 158.342 45.9921 158.248C46.2138 158.154 46.4525 158.107 46.6932 158.109Z" fill="white"/>
<path d="M257.297 113.437L253.702 113.277L255.328 120.117C256.609 119.251 257.778 118.23 258.809 117.077C258.958 116.905 259.071 116.706 259.143 116.49C259.214 116.274 259.242 116.046 259.225 115.82C259.208 115.593 259.147 115.372 259.044 115.169C258.941 114.966 258.799 114.786 258.627 114.638L257.297 113.437Z" fill="#FF8B7B"/>
<path d="M249.53 116.963L251.141 122.534L255.328 120.102L253.702 113.277L249.53 116.963Z" fill="#FF8B7B"/>
<path d="M230.005 78.5757L228.28 80.5669C227.687 81.2509 227.11 81.9501 226.54 82.6569C225.4 84.0629 224.26 85.4765 223.211 86.9281C221.082 89.7207 219.2 92.6934 217.587 95.8125C217.397 96.1925 217.245 96.5725 217.07 96.9449L216.812 97.4997C216.721 97.8736 216.734 98.2651 216.85 98.6321C217.272 100.128 217.895 101.56 218.704 102.888C220.56 105.984 222.622 108.952 224.875 111.773L222.01 114.813C218.775 112.445 215.856 109.673 213.323 106.566C211.883 104.837 210.731 102.887 209.911 100.79C209.361 99.3719 209.16 97.8418 209.326 96.3293C209.386 95.8564 209.493 95.3906 209.645 94.9385L209.918 94.1785C210.101 93.6769 210.276 93.1677 210.466 92.6585C212.046 88.9084 214.028 85.3408 216.378 82.0185C217.518 80.3845 218.658 78.7885 219.943 77.2685C220.566 76.5085 221.197 75.7485 221.843 74.9885C222.489 74.2285 223.135 73.5293 223.887 72.7085L230.005 78.5757Z" fill="#FF8B7B"/>
<path d="M229.451 114.159L226.205 120.558L223.036 117.837L225.635 113.277L229.451 114.159Z" fill="#FF8B7B"/>
<path d="M261.249 72.4346C263.248 75.9686 265.11 79.5178 266.896 83.143C268.682 86.7682 270.392 90.4314 271.988 94.1934L272.117 94.5202L272.261 94.9382C272.358 95.2097 272.429 95.4895 272.474 95.7742C272.52 96.0326 272.55 96.2986 272.58 96.5342C272.595 96.7721 272.595 97.0107 272.58 97.2486C272.576 97.6847 272.533 98.1196 272.451 98.5482C272.385 98.9263 272.294 99.2995 272.178 99.6654C271.793 100.886 271.265 102.057 270.604 103.154C270.034 104.125 269.402 105.06 268.712 105.951C268.051 106.817 267.382 107.645 266.683 108.436C263.911 111.543 260.858 114.387 257.563 116.933L254.66 113.893C257.092 110.853 259.508 107.691 261.606 104.537C262.629 103.04 263.531 101.465 264.304 99.825C264.619 99.1717 264.854 98.4827 265.003 97.773C265.024 97.6575 265.037 97.5407 265.041 97.4234C265.041 97.3246 265.041 97.241 265.041 97.2258C265.041 97.1726 265.041 97.2106 265.041 97.2258C265.037 97.2433 265.037 97.2614 265.041 97.279C265.041 97.279 265.041 97.3398 265.041 97.3854C265.035 97.4077 265.035 97.4314 265.041 97.4538C265.041 97.4538 265.079 97.5146 265.041 97.4538C263.225 93.9806 261.317 90.4998 259.432 87.0038C257.548 83.5078 255.632 80.0042 253.808 76.5082L261.249 72.4346Z" fill="#FF8B7B"/>
<path d="M232.506 50.8432C232.597 51.284 232.437 51.6944 232.156 51.7704C231.875 51.8464 231.563 51.5424 231.464 51.1016C231.366 50.6608 231.533 50.2428 231.814 50.1744C232.095 50.106 232.407 50.4024 232.506 50.8432Z" fill="#263238"/>
<path d="M232.483 51.687C232.246 53.1696 231.811 54.6138 231.191 55.981C231.54 56.1215 231.916 56.1829 232.292 56.1605C232.668 56.1382 233.034 56.0327 233.365 55.8518L232.483 51.687Z" fill="#FF5652"/>
<path d="M232.012 55.0916C231.434 55.0916 230.872 54.6432 230.423 53.8148C229.486 51.8382 229.323 49.5822 229.967 47.4916C230.302 46.5644 230.826 46.0324 231.434 45.9716C232.042 45.9108 232.627 46.3744 233.098 47.2408C233.586 48.2136 233.866 49.2775 233.919 50.3644C234.109 52.9104 233.304 54.9776 232.088 55.0688L232.012 55.0916ZM231.51 46.3668H231.457C231.016 46.3668 230.606 46.8608 230.324 47.6208C230.003 48.6 229.887 49.6348 229.982 50.6608C230.027 51.6909 230.286 52.7004 230.742 53.6248C231.13 54.3468 231.609 54.742 232.05 54.704C233.015 54.6356 233.691 52.6672 233.524 50.4024C233.479 49.3724 233.22 48.3631 232.764 47.4384C232.392 46.7544 231.936 46.3668 231.51 46.3668Z" fill="#263238"/>
<path d="M231.32 48.1605C231.374 48.1607 231.427 48.1448 231.472 48.1149C231.755 47.9457 232.074 47.8464 232.403 47.8253C232.732 47.8041 233.062 47.8617 233.364 47.9933C233.429 48.0186 233.501 48.0176 233.565 47.9906C233.629 47.9637 233.679 47.9128 233.706 47.8489C233.732 47.7833 233.731 47.7103 233.704 47.6451C233.677 47.58 233.626 47.5278 233.562 47.4993C233.178 47.3344 232.759 47.2648 232.342 47.2966C231.926 47.3283 231.523 47.4605 231.168 47.6817C231.139 47.7008 231.114 47.7255 231.095 47.7544C231.076 47.7832 231.063 47.8156 231.056 47.8496C231.05 47.8836 231.051 47.9186 231.058 47.9524C231.065 47.9863 231.079 48.0182 231.099 48.0465C231.124 48.082 231.157 48.1109 231.196 48.1308C231.234 48.1506 231.277 48.1608 231.32 48.1605Z" fill="#263238"/>
<path d="M247.675 53.9365C247.531 58.5345 245.828 64.0901 248.58 66.8109C248.58 66.8109 247.303 70.9529 239.71 70.9529C231.35 70.9529 235.91 66.8109 235.91 66.8109C240.508 65.7241 240.524 62.3497 239.855 59.1729L247.675 53.9365Z" fill="#FF8B7B"/>
<path d="M250.533 68.2323C251.186 66.9251 251.848 64.9111 250.533 64.4323C249.051 63.9155 241.527 62.6083 235.804 64.4323C236.104 65.07 236.266 65.7639 236.279 66.4686C236.292 67.1732 236.156 67.8727 235.88 68.5211L250.533 68.2323Z" fill="#263238"/>
<path d="M260.55 258.923C259.98 258.923 259.425 258.84 259.22 258.559C259.151 258.468 259.114 258.357 259.114 258.243C259.114 258.13 259.151 258.019 259.22 257.928C259.267 257.848 259.33 257.778 259.406 257.724C259.482 257.671 259.569 257.634 259.661 257.616C260.474 257.442 261.941 258.49 262.032 258.536C262.053 258.549 262.069 258.569 262.079 258.592C262.088 258.615 262.09 258.641 262.085 258.665C262.081 258.691 262.069 258.715 262.052 258.733C262.034 258.752 262.011 258.766 261.986 258.772C261.514 258.87 261.032 258.921 260.55 258.923ZM259.888 257.859H259.737C259.627 257.883 259.532 257.949 259.471 258.042C259.341 258.262 259.41 258.353 259.432 258.384C259.66 258.695 260.801 258.703 261.637 258.559C261.116 258.194 260.517 257.955 259.888 257.859Z" fill="white"/>
<path d="M261.978 258.771H261.918C261.355 258.46 260.291 257.251 260.398 256.621C260.418 256.521 260.473 256.431 260.551 256.366C260.63 256.301 260.729 256.265 260.831 256.263C260.931 256.254 261.033 256.264 261.13 256.294C261.226 256.324 261.316 256.373 261.393 256.438C262.024 256.97 262.092 258.581 262.092 258.65C262.094 258.674 262.089 258.697 262.078 258.719C262.067 258.74 262.051 258.758 262.032 258.771H261.978ZM260.937 256.491H260.876C260.702 256.491 260.679 256.598 260.671 256.636C260.603 257.008 261.279 257.928 261.826 258.353C261.812 257.724 261.605 257.114 261.234 256.605C261.157 256.54 261.06 256.505 260.96 256.507L260.937 256.491Z" fill="white"/>
<path d="M227.026 258.923C226.266 258.923 225.62 258.824 225.392 258.505C225.333 258.421 225.301 258.32 225.301 258.216C225.301 258.113 225.333 258.012 225.392 257.928C225.992 256.94 228.47 258.361 228.751 258.528C228.774 258.542 228.793 258.562 228.803 258.587C228.814 258.611 228.817 258.639 228.812 258.665C228.807 258.691 228.794 258.715 228.775 258.734C228.756 258.753 228.732 258.766 228.706 258.771C228.151 258.868 227.589 258.919 227.026 258.923ZM226.167 257.844C226.069 257.831 225.97 257.845 225.879 257.884C225.788 257.923 225.709 257.985 225.65 258.064C225.536 258.247 225.59 258.323 225.612 258.353C225.856 258.703 227.269 258.718 228.318 258.574C227.656 258.191 226.925 257.943 226.167 257.844Z" fill="white"/>
<path d="M228.713 258.772H228.66C227.991 258.46 226.722 257.252 226.829 256.636C226.829 256.484 226.958 256.294 227.33 256.256C227.466 256.236 227.605 256.247 227.737 256.287C227.869 256.328 227.989 256.398 228.09 256.492C228.782 257.077 228.85 258.574 228.85 258.642C228.853 258.665 228.85 258.687 228.841 258.707C228.831 258.728 228.816 258.745 228.797 258.756C228.771 258.77 228.742 258.775 228.713 258.772ZM227.437 256.492H227.361C227.11 256.492 227.095 256.613 227.087 256.651C227.026 257.039 227.885 257.974 228.554 258.384C228.518 257.754 228.287 257.151 227.893 256.659C227.763 256.556 227.602 256.502 227.437 256.507V256.492Z" fill="white"/>
<path d="M234.854 258.643H229.268L229.215 245.708H234.793L234.854 258.643Z" fill="#FF8B7B"/>
<path d="M268.378 258.643H262.792L260.481 245.708H266.067L268.378 258.643Z" fill="#FF8B7B"/>
<path d="M262.419 257.997H268.689C268.799 257.995 268.906 258.033 268.991 258.102C269.075 258.172 269.133 258.269 269.153 258.377L270.065 263.34C270.085 263.463 270.078 263.589 270.043 263.71C270.009 263.83 269.949 263.941 269.867 264.035C269.785 264.13 269.683 264.205 269.569 264.255C269.455 264.306 269.331 264.331 269.206 264.328C267.017 264.328 265.961 264.168 263.202 264.168C261.507 264.168 258.003 264.343 255.663 264.343C253.322 264.343 253.101 262.025 254.067 261.812C258.406 260.87 260.078 259.578 261.499 258.339C261.754 258.117 262.081 257.995 262.419 257.997Z" fill="#263238"/>
<path d="M229.329 257.997H235.409C235.517 257.996 235.623 258.033 235.707 258.103C235.791 258.172 235.847 258.27 235.865 258.377L236.777 263.34C236.799 263.462 236.794 263.588 236.762 263.709C236.73 263.829 236.671 263.94 236.59 264.035C236.51 264.13 236.409 264.205 236.295 264.256C236.181 264.306 236.058 264.331 235.933 264.328C233.737 264.328 230.567 264.168 227.801 264.168C224.571 264.168 221.767 264.343 217.982 264.343C215.702 264.343 215.139 262.025 216.105 261.812C220.513 260.862 224.085 260.756 227.945 258.43C228.358 258.162 228.837 258.012 229.329 257.997Z" fill="#263238"/>
<path d="M259.235 68.0801C264.418 69.2809 269.875 83.5461 269.875 83.5461L259.09 90.7509C256.614 86.9943 254.444 83.0448 252.6 78.9405C249.742 72.4121 253.93 66.8489 259.235 68.0801Z" fill="#6730DE"/>
<path opacity="0.3" d="M259.235 68.0801C264.418 69.2809 269.875 83.5461 269.875 83.5461L259.09 90.7509C256.614 86.9943 254.444 83.0448 252.6 78.9405C249.742 72.4121 253.93 66.8489 259.235 68.0801Z" fill="#FAFAFA"/>
<path opacity="0.2" d="M255.131 77.2002L259.592 90.4318L259.083 90.7738C259.083 90.7738 257.046 87.7338 254.88 83.683L255.131 77.2002Z" fill="black"/>
<path d="M224.396 93.0157C224.442 99.2477 224.814 107 225.742 116.621H255.64C256.027 112.061 254.006 89.6718 259.258 68.0726C255.975 67.4361 252.654 67.0147 249.317 66.811C245.09 66.5676 240.852 66.5676 236.625 66.811C233.707 67.0948 230.816 67.603 227.976 68.331C227.976 68.331 225.422 71.0973 224.647 84.0705C224.48 86.6621 224.381 89.6109 224.396 93.0157Z" fill="#6730DE"/>
<path opacity="0.3" d="M224.396 93.0157C224.442 99.2477 224.814 107 225.742 116.621H255.64C256.027 112.061 254.006 89.6718 259.258 68.0726C255.975 67.4361 252.654 67.0147 249.317 66.811C245.09 66.5676 240.852 66.5676 236.625 66.811C233.707 67.0948 230.816 67.603 227.976 68.331C227.976 68.331 225.422 71.0973 224.647 84.0705C224.48 86.6621 224.381 89.6109 224.396 93.0157Z" fill="#FAFAFA"/>
<path opacity="0.2" d="M224.396 93.0154C226.205 89.717 229.488 83.0974 229.025 79.3354L224.617 84.1082C224.48 86.6618 224.381 89.6106 224.396 93.0154Z" fill="black"/>
<path d="M233.798 73.4003C234.269 78.7203 222.208 91.5187 222.208 91.5187L212.541 83.6375C215.074 79.3728 218.108 75.4258 221.577 71.8803C227.231 66.4083 233.273 67.4495 233.798 73.4003Z" fill="#6730DE"/>
<path opacity="0.3" d="M233.798 73.4003C234.269 78.7203 222.208 91.5187 222.208 91.5187L212.541 83.6375C215.074 79.3728 218.108 75.4258 221.577 71.8803C227.231 66.4083 233.273 67.4495 233.798 73.4003Z" fill="#FAFAFA"/>
<path opacity="0.2" d="M229.215 245.715L229.245 252.38H234.831L234.801 245.715H229.215Z" fill="black"/>
<path opacity="0.2" d="M266.067 245.715H260.481L261.674 252.38H267.26L266.067 245.715Z" fill="black"/>
<path d="M246.87 46.2299C247.683 51.7247 248.443 54.8939 246.322 58.3519C245.651 59.4841 244.682 60.4109 243.521 61.0318C242.361 61.6527 241.052 61.9441 239.738 61.8745C238.423 61.8048 237.153 61.3767 236.064 60.6365C234.975 59.8963 234.11 58.8723 233.562 57.6755C231.381 53.1155 230.408 44.8771 235.204 41.3963C236.218 40.6143 237.421 40.1137 238.691 39.9451C239.961 39.7766 241.252 39.946 242.436 40.4363C243.619 40.9266 244.652 41.7205 245.431 42.7377C246.209 43.7549 246.706 44.9595 246.87 46.2299Z" fill="#FF8B7B"/>
<path d="M237.529 44.7255C219.966 44.2999 234.337 33.6675 234.337 33.6675C231.449 38.7367 239.726 38.2731 241.816 35.9931C244.354 33.2039 248.944 37.0875 248.58 40.1275C251.255 39.7931 253.375 41.7767 252.38 48.1607C251.384 54.5447 249.294 56.3459 248.2 57.9039C247.105 59.4619 247.196 57.9799 243.548 58.6639C241.04 59.1351 236.838 53.7239 236.374 50.5623C236.045 48.5411 236.455 46.469 237.529 44.7255Z" fill="#263238"/>
<path d="M246.566 41.0549C246.566 41.0549 251.126 39.1548 248.086 34.3896C252.311 36.586 251.673 40.5913 246.566 41.0549Z" fill="#263238"/>
<path d="M239.961 49.6275C239.94 51.0267 239.471 52.3824 238.624 53.4959C237.491 54.9551 236.192 54.2559 235.88 52.6143C235.606 51.1551 235.88 48.6395 237.294 47.7579C238.707 46.8763 239.969 47.9555 239.961 49.6275Z" fill="#FF8B7B"/>
<path d="M236.344 116.621C236.344 116.621 241.033 159.28 243.89 175.24C247.022 192.72 259.09 251.058 259.09 251.058H269.32C269.32 251.058 262.054 194.164 260.55 176.828C258.916 158.018 255.579 116.591 255.579 116.591L236.344 116.621Z" fill="#263238"/>
<path d="M257.639 247.318C257.593 247.318 258.543 251.248 258.543 251.248H270.08L270.004 247.744L257.639 247.318Z" fill="#6730DE"/>
<path opacity="0.2" d="M239.756 131.821C247.029 133.257 245.198 160.579 243.776 174.632C242.044 164.698 239.688 145.584 238.099 132.018C238.613 131.768 239.197 131.698 239.756 131.821Z" fill="black"/>
<path d="M225.749 116.621C225.749 116.621 223.363 158.368 223.317 175.392C223.264 193.1 227.208 251.088 227.208 251.088H236.64C236.64 251.088 239.186 194.134 240.28 176.745C241.466 157.745 245.35 116.621 245.35 116.621H225.749Z" fill="#263238"/>
<path d="M223.462 111.264L226.114 111.476C226.33 111.494 226.539 111.559 226.726 111.667C226.914 111.775 227.075 111.924 227.197 112.103C227.319 112.281 227.4 112.485 227.434 112.699C227.467 112.912 227.453 113.131 227.391 113.338L226.296 117.024C226.204 117.324 226.041 117.597 225.82 117.819C225.6 118.042 225.329 118.209 225.03 118.304C224.732 118.4 224.415 118.422 224.106 118.368C223.797 118.315 223.506 118.187 223.256 117.997C221.883 116.724 220.9 115.088 220.422 113.278L223.462 111.264Z" fill="#FF8B7B"/>
<path opacity="0.2" d="M229.45 244.294C229.425 244.294 229.401 244.285 229.383 244.268C229.365 244.251 229.354 244.228 229.352 244.203C228.303 228.159 225.871 189.323 225.916 175.393C225.954 161.143 227.649 129.261 228.196 119.829C228.192 119.814 228.191 119.799 228.194 119.784C228.197 119.769 228.203 119.755 228.213 119.742C228.222 119.73 228.234 119.72 228.247 119.714C228.261 119.707 228.276 119.703 228.291 119.703C228.307 119.703 228.322 119.707 228.335 119.714C228.349 119.72 228.361 119.73 228.37 119.742C228.379 119.755 228.386 119.769 228.389 119.784C228.391 119.799 228.391 119.814 228.386 119.829C227.87 129.261 226.175 161.143 226.106 175.385C226.061 189.308 228.493 228.137 229.542 244.188C229.543 244.2 229.541 244.213 229.537 244.225C229.533 244.237 229.526 244.248 229.518 244.257C229.509 244.267 229.499 244.274 229.487 244.279C229.476 244.284 229.463 244.287 229.45 244.287V244.294Z" fill="#FAFAFA"/>
<path d="M225.536 247.318C225.491 247.318 225.916 251.248 225.916 251.248H237.4L237.848 247.744L225.536 247.318Z" fill="#6730DE"/>
</g>
<defs>
<clipPath id="clip0_3041_2339">
<rect width="299" height="273" fill="white"/>
</clipPath>
</defs>
</svg>
